<svg width="1440" height="1024" viewBox="0 0 1440 1024" fill="none" xmlns="http://www.w3.org/2000/svg">
<g opacity="0.3" filter="url(#filter0_f_261_22517)">
<circle cx="385.233" cy="119.233" r="126.649" transform="rotate(-34.7184 385.233 119.233)" fill="#ECC55E"/>
</g>
<mask id="mask0_261_22517" style="mask-type:alpha" maskUnits="userSpaceOnUse" x="861" y="166" width="369" height="589">
<rect x="861" y="166" width="369" height="589" fill="url(#paint0_linear_261_22517)" fill-opacity="0.2"/>
<rect x="862" y="167" width="367" height="587" stroke="white" stroke-opacity="0.1" stroke-width="2"/>
</mask>
<g mask="url(#mask0_261_22517)">
<mask id="path-4-inside-1_261_22517" fill="white">
<path fill-rule="evenodd" clip-rule="evenodd" d="M1155.35 211.317C1126.39 182.353 1087.12 166.057 1046.15 166C1005.17 166.022 965.879 182.318 936.91 211.305C907.942 240.292 891.671 279.597 891.676 320.577C891.638 346.412 898.151 371.835 910.606 394.469C929.895 378.762 951.844 366.643 975.412 358.686C969.015 346.985 965.706 333.847 965.798 320.511C965.646 309.861 967.612 299.287 971.582 289.403C975.552 279.519 981.447 270.522 988.925 262.937C996.403 255.351 1005.31 249.328 1015.14 245.217C1024.97 241.105 1035.51 238.988 1046.16 238.988C1056.81 238.988 1067.36 241.105 1077.19 245.217C1087.01 249.328 1095.92 255.351 1103.4 262.937C1110.88 270.522 1116.77 279.519 1120.74 289.403C1124.71 299.287 1126.68 309.861 1126.53 320.511C1126.49 333.806 1123.2 346.889 1116.95 358.62C1140.51 366.577 1162.46 378.696 1181.75 394.403C1194.21 371.769 1200.72 346.346 1200.68 320.511C1200.62 279.548 1184.32 240.281 1155.35 211.317ZM559.224 698.822C588.188 727.786 627.456 744.083 668.417 744.14C688.717 744.149 708.819 740.159 727.577 732.399C746.334 724.638 763.379 713.26 777.739 698.912C792.099 684.564 803.493 667.529 811.269 648.778C819.045 630.027 823.052 609.928 823.061 589.629H748.856C748.856 600.183 746.777 610.634 742.738 620.386C738.699 630.137 732.778 638.997 725.315 646.46C717.852 653.924 708.992 659.844 699.24 663.883C689.489 667.922 679.038 670.001 668.483 670.001C657.929 670.001 647.477 667.922 637.726 663.883C627.975 659.844 619.115 653.924 611.651 646.46C604.188 638.997 598.268 630.137 594.229 620.386C590.19 610.634 588.111 600.183 588.111 589.629H513.906C513.963 630.59 530.26 669.858 559.224 698.822ZM568.127 496.619C597.804 516.484 632.706 527.102 668.417 527.131C692.131 527.151 715.616 522.499 737.532 513.442C759.448 504.385 779.365 491.099 796.146 474.344C812.927 457.589 826.243 437.693 835.335 415.791C844.426 393.889 849.114 370.411 849.131 346.698C849.157 310.986 838.593 276.068 818.775 246.36C798.957 216.652 770.774 193.488 737.791 179.797C704.808 166.106 668.506 162.502 633.475 169.443C598.444 176.383 566.257 193.555 540.986 218.787C515.714 244.02 498.492 276.18 491.497 311.2C484.503 346.22 488.05 382.528 501.69 415.532C515.33 448.536 538.45 476.755 568.127 496.619ZM945.778 713.761C975.495 733.594 1010.43 744.166 1046.15 744.14C1093.98 744.048 1139.83 725.007 1173.65 691.186C1207.47 657.365 1226.51 611.52 1226.6 563.69C1226.63 527.963 1216.06 493.031 1196.23 463.314C1176.39 433.597 1148.19 410.431 1115.19 396.747C1082.19 383.063 1045.87 379.476 1010.82 386.439C975.783 393.403 943.594 410.604 918.331 435.867C893.069 461.13 875.867 493.319 868.903 528.36C861.94 563.402 865.527 599.722 879.211 632.725C892.896 665.727 916.062 693.929 945.778 713.761ZM1134.75 622.89C1146.46 605.367 1152.71 584.765 1152.71 563.69C1152.72 549.694 1149.97 535.833 1144.62 522.901C1139.27 509.969 1131.42 498.219 1121.52 488.322C1111.63 478.426 1099.87 470.577 1086.94 465.225C1074.01 459.873 1060.15 457.123 1046.15 457.131C1025.08 457.131 1004.48 463.381 986.953 475.09C969.43 486.798 955.772 503.441 947.707 522.912C939.642 542.383 937.532 563.808 941.643 584.478C945.755 605.149 955.903 624.135 970.806 639.038C985.708 653.94 1004.7 664.089 1025.37 668.201C1046.04 672.312 1067.46 670.202 1086.93 662.137C1106.4 654.072 1123.05 640.414 1134.75 622.89ZM757.017 405.898C768.726 388.375 774.976 367.773 774.976 346.698C774.932 318.45 763.691 291.372 743.717 271.398C723.743 251.423 696.665 240.183 668.417 240.139C647.342 240.139 626.74 246.389 609.217 258.097C591.693 269.806 578.035 286.448 569.97 305.919C561.905 325.39 559.795 346.816 563.906 367.486C568.018 388.156 578.167 407.143 593.069 422.046C607.972 436.948 626.958 447.097 647.629 451.209C668.299 455.32 689.724 453.21 709.195 445.145C728.666 437.08 745.309 423.422 757.017 405.898Z"/>
</mask>
<path fill-rule="evenodd" clip-rule="evenodd" d="M1155.35 211.317C1126.39 182.353 1087.12 166.057 1046.15 166C1005.17 166.022 965.879 182.318 936.91 211.305C907.942 240.292 891.671 279.597 891.676 320.577C891.638 346.412 898.151 371.835 910.606 394.469C929.895 378.762 951.844 366.643 975.412 358.686C969.015 346.985 965.706 333.847 965.798 320.511C965.646 309.861 967.612 299.287 971.582 289.403C975.552 279.519 981.447 270.522 988.925 262.937C996.403 255.351 1005.31 249.328 1015.14 245.217C1024.97 241.105 1035.51 238.988 1046.16 238.988C1056.81 238.988 1067.36 241.105 1077.19 245.217C1087.01 249.328 1095.92 255.351 1103.4 262.937C1110.88 270.522 1116.77 279.519 1120.74 289.403C1124.71 299.287 1126.68 309.861 1126.53 320.511C1126.49 333.806 1123.2 346.889 1116.95 358.62C1140.51 366.577 1162.46 378.696 1181.75 394.403C1194.21 371.769 1200.72 346.346 1200.68 320.511C1200.62 279.548 1184.32 240.281 1155.35 211.317ZM559.224 698.822C588.188 727.786 627.456 744.083 668.417 744.14C688.717 744.149 708.819 740.159 727.577 732.399C746.334 724.638 763.379 713.26 777.739 698.912C792.099 684.564 803.493 667.529 811.269 648.778C819.045 630.027 823.052 609.928 823.061 589.629H748.856C748.856 600.183 746.777 610.634 742.738 620.386C738.699 630.137 732.778 638.997 725.315 646.46C717.852 653.924 708.992 659.844 699.24 663.883C689.489 667.922 679.038 670.001 668.483 670.001C657.929 670.001 647.477 667.922 637.726 663.883C627.975 659.844 619.115 653.924 611.651 646.46C604.188 638.997 598.268 630.137 594.229 620.386C590.19 610.634 588.111 600.183 588.111 589.629H513.906C513.963 630.59 530.26 669.858 559.224 698.822ZM568.127 496.619C597.804 516.484 632.706 527.102 668.417 527.131C692.131 527.151 715.616 522.499 737.532 513.442C759.448 504.385 779.365 491.099 796.146 474.344C812.927 457.589 826.243 437.693 835.335 415.791C844.426 393.889 849.114 370.411 849.131 346.698C849.157 310.986 838.593 276.068 818.775 246.36C798.957 216.652 770.774 193.488 737.791 179.797C704.808 166.106 668.506 162.502 633.475 169.443C598.444 176.383 566.257 193.555 540.986 218.787C515.714 244.02 498.492 276.18 491.497 311.2C484.503 346.22 488.05 382.528 501.69 415.532C515.33 448.536 538.45 476.755 568.127 496.619ZM945.778 713.761C975.495 733.594 1010.43 744.166 1046.15 744.14C1093.98 744.048 1139.83 725.007 1173.65 691.186C1207.47 657.365 1226.51 611.52 1226.6 563.69C1226.63 527.963 1216.06 493.031 1196.23 463.314C1176.39 433.597 1148.19 410.431 1115.19 396.747C1082.19 383.063 1045.87 379.476 1010.82 386.439C975.783 393.403 943.594 410.604 918.331 435.867C893.069 461.13 875.867 493.319 868.903 528.36C861.94 563.402 865.527 599.722 879.211 632.725C892.896 665.727 916.062 693.929 945.778 713.761ZM1134.75 622.89C1146.46 605.367 1152.71 584.765 1152.71 563.69C1152.72 549.694 1149.97 535.833 1144.62 522.901C1139.27 509.969 1131.42 498.219 1121.52 488.322C1111.63 478.426 1099.87 470.577 1086.94 465.225C1074.01 459.873 1060.15 457.123 1046.15 457.131C1025.08 457.131 1004.48 463.381 986.953 475.09C969.43 486.798 955.772 503.441 947.707 522.912C939.642 542.383 937.532 563.808 941.643 584.478C945.755 605.149 955.903 624.135 970.806 639.038C985.708 653.94 1004.7 664.089 1025.37 668.201C1046.04 672.312 1067.46 670.202 1086.93 662.137C1106.4 654.072 1123.05 640.414 1134.75 622.89ZM757.017 405.898C768.726 388.375 774.976 367.773 774.976 346.698C774.932 318.45 763.691 291.372 743.717 271.398C723.743 251.423 696.665 240.183 668.417 240.139C647.342 240.139 626.74 246.389 609.217 258.097C591.693 269.806 578.035 286.448 569.97 305.919C561.905 325.39 559.795 346.816 563.906 367.486C568.018 388.156 578.167 407.143 593.069 422.046C607.972 436.948 626.958 447.097 647.629 451.209C668.299 455.32 689.724 453.21 709.195 445.145C728.666 437.08 745.309 423.422 757.017 405.898Z" fill="url(#paint1_linear_261_22517)" fill-opacity="0.2"/>
<path d="M1046.15 166L1046.16 164L1046.15 164L1046.15 166ZM891.676 320.577L893.676 320.58V320.577L891.676 320.577ZM910.606 394.469L908.854 395.433L910.01 397.534L911.869 396.02L910.606 394.469ZM975.412 358.686L976.052 360.581L978.31 359.818L977.167 357.726L975.412 358.686ZM965.798 320.511L967.798 320.525L967.798 320.504L967.798 320.483L965.798 320.511ZM971.582 289.403L973.438 290.148L971.582 289.403ZM988.925 262.937L987.501 261.533L988.925 262.937ZM1015.14 245.217L1015.91 247.062L1015.14 245.217ZM1077.19 245.217L1077.96 243.372L1077.19 245.217ZM1103.4 262.937L1104.82 261.533V261.533L1103.4 262.937ZM1120.74 289.403L1122.6 288.657L1120.74 289.403ZM1126.53 320.511L1124.53 320.483L1124.53 320.494L1124.53 320.506L1126.53 320.511ZM1116.95 358.62L1115.18 357.679L1114.07 359.76L1116.31 360.515L1116.95 358.62ZM1181.75 394.403L1180.49 395.954L1182.35 397.468L1183.5 395.367L1181.75 394.403ZM1200.68 320.511L1202.68 320.509V320.508L1200.68 320.511ZM668.417 744.14L668.415 746.14H668.416L668.417 744.14ZM559.224 698.822L560.638 697.408L559.224 698.822ZM727.577 732.399L728.341 734.247L727.577 732.399ZM777.739 698.912L779.153 700.327L777.739 698.912ZM823.061 589.629L825.061 589.629L825.062 587.629H823.061V589.629ZM748.856 589.629V587.629H746.856V589.629H748.856ZM742.738 620.386L744.585 621.151L742.738 620.386ZM725.315 646.46L723.901 645.046L723.901 645.046L725.315 646.46ZM699.24 663.883L700.006 665.731L699.24 663.883ZM637.726 663.883L636.961 665.731H636.961L637.726 663.883ZM611.651 646.46L613.066 645.046V645.046L611.651 646.46ZM594.229 620.386L592.381 621.151L594.229 620.386ZM588.111 589.629H590.111V587.629H588.111V589.629ZM513.906 589.629V587.629H511.903L511.906 589.631L513.906 589.629ZM668.417 527.131L668.419 525.131L668.417 527.131ZM568.127 496.619L567.015 498.281L568.127 496.619ZM737.532 513.442L736.768 511.593L737.532 513.442ZM835.335 415.791L837.182 416.558L835.335 415.791ZM849.131 346.698L851.131 346.699V346.699L849.131 346.698ZM818.775 246.36L820.439 245.25L818.775 246.36ZM737.791 179.797L737.024 181.644L737.791 179.797ZM633.475 169.443L633.863 171.405L633.475 169.443ZM491.497 311.2L489.536 310.808L491.497 311.2ZM501.69 415.532L503.538 414.768L501.69 415.532ZM1046.15 744.14L1046.16 746.14H1046.16L1046.15 744.14ZM1173.65 691.186L1175.06 692.6L1173.65 691.186ZM1226.6 563.69L1228.6 563.694V563.691L1226.6 563.69ZM1196.23 463.314L1194.56 464.424L1196.23 463.314ZM1115.19 396.747L1114.42 398.594L1115.19 396.747ZM918.331 435.867L916.917 434.453L918.331 435.867ZM868.903 528.36L870.865 528.75L868.903 528.36ZM879.211 632.725L877.364 633.491L879.211 632.725ZM1152.71 563.69L1150.71 563.688V563.69H1152.71ZM1134.75 622.89L1136.42 624.002L1134.75 622.89ZM1144.62 522.901L1146.47 522.137L1144.62 522.901ZM1121.52 488.322L1122.94 486.908V486.908L1121.52 488.322ZM1046.15 457.131V459.131H1046.16L1046.15 457.131ZM986.953 475.09L985.842 473.427L986.953 475.09ZM947.707 522.912L945.859 522.146L947.707 522.912ZM941.643 584.478L939.682 584.868L941.643 584.478ZM1025.37 668.201L1024.98 670.162L1025.37 668.201ZM774.976 346.698H776.976V346.695L774.976 346.698ZM757.017 405.898L755.355 404.787L757.017 405.898ZM743.717 271.398L745.132 269.983L743.717 271.398ZM668.417 240.139L668.42 238.139H668.417V240.139ZM609.217 258.097L608.105 256.435L609.217 258.097ZM569.97 305.919L571.818 306.685L569.97 305.919ZM563.906 367.486L565.868 367.096L563.906 367.486ZM593.069 422.046L594.483 420.632L593.069 422.046ZM647.629 451.209L648.019 449.247L647.629 451.209ZM709.195 445.145L709.961 446.993L709.195 445.145ZM1046.15 168C1086.59 168.056 1125.35 184.142 1153.94 212.731L1156.77 209.903C1127.43 180.565 1087.65 164.057 1046.16 164L1046.15 168ZM938.325 212.719C966.919 184.107 1005.7 168.022 1046.16 168L1046.15 164C1004.64 164.022 964.839 180.529 935.496 209.891L938.325 212.719ZM893.676 320.577C893.671 280.127 909.732 241.331 938.325 212.719L935.496 209.891C906.153 239.253 889.671 279.067 889.676 320.578L893.676 320.577ZM912.358 393.505C900.067 371.167 893.639 346.077 893.676 320.58L889.676 320.575C889.638 346.747 896.236 372.503 908.854 395.433L912.358 393.505ZM974.772 356.791C950.978 364.824 928.817 377.061 909.343 392.918L911.869 396.02C930.972 380.464 952.711 368.461 976.052 360.581L974.772 356.791ZM963.798 320.498C963.704 334.173 967.097 347.646 973.657 359.645L977.167 357.726C970.933 346.324 967.708 333.52 967.798 320.525L963.798 320.498ZM969.726 288.657C965.657 298.787 963.642 309.625 963.798 320.54L967.798 320.483C967.649 310.097 969.566 299.786 973.438 290.148L969.726 288.657ZM987.501 261.533C979.837 269.307 973.795 278.527 969.726 288.657L973.438 290.148C977.309 280.51 983.058 271.738 990.349 264.341L987.501 261.533ZM1014.37 243.372C1004.3 247.585 995.164 253.759 987.501 261.533L990.349 264.341C997.641 256.944 1006.33 251.071 1015.91 247.062L1014.37 243.372ZM1046.16 236.988C1035.25 236.988 1024.44 239.158 1014.37 243.372L1015.91 247.062C1025.49 243.052 1035.78 240.988 1046.16 240.988V236.988ZM1077.96 243.372C1067.89 239.158 1057.08 236.988 1046.16 236.988V240.988C1056.55 240.988 1066.83 243.052 1076.41 247.062L1077.96 243.372ZM1104.82 261.533C1097.16 253.759 1088.03 247.585 1077.96 243.372L1076.41 247.062C1085.99 251.071 1094.68 256.944 1101.98 264.341L1104.82 261.533ZM1122.6 288.657C1118.53 278.527 1112.49 269.307 1104.82 261.533L1101.98 264.341C1109.27 271.738 1115.02 280.51 1118.89 290.148L1122.6 288.657ZM1128.53 320.54C1128.68 309.625 1126.67 298.787 1122.6 288.657L1118.89 290.148C1122.76 299.786 1124.68 310.097 1124.53 320.483L1128.53 320.54ZM1118.71 359.561C1125.12 347.542 1128.49 334.138 1128.53 320.517L1124.53 320.506C1124.49 333.474 1121.28 346.236 1115.18 357.679L1118.71 359.561ZM1183.01 392.852C1163.54 376.995 1141.38 364.758 1117.59 356.725L1116.31 360.515C1139.65 368.395 1161.39 380.398 1180.49 395.954L1183.01 392.852ZM1198.68 320.514C1198.72 346.011 1192.29 371.101 1180 393.439L1183.5 395.367C1196.12 372.437 1202.72 346.682 1202.68 320.509L1198.68 320.514ZM1153.94 212.731C1182.53 241.321 1198.62 280.081 1198.68 320.514L1202.68 320.508C1202.62 279.016 1186.11 239.241 1156.77 209.903L1153.94 212.731ZM668.42 742.14C627.988 742.084 589.228 725.998 560.638 697.408L557.81 700.236C587.148 729.575 626.923 746.083 668.415 746.14L668.42 742.14ZM726.812 730.551C708.297 738.21 688.455 742.148 668.418 742.14L668.416 746.14C688.979 746.149 709.341 742.107 728.341 734.247L726.812 730.551ZM776.326 697.497C762.152 711.659 745.327 722.891 726.812 730.551L728.341 734.247C747.341 726.386 764.607 714.86 779.153 700.327L776.326 697.497ZM809.421 648.012C801.746 666.52 790.5 683.335 776.326 697.497L779.153 700.327C793.699 685.793 805.24 668.537 813.116 649.544L809.421 648.012ZM821.061 589.628C821.052 609.664 817.097 629.503 809.421 648.012L813.116 649.544C820.993 630.55 825.052 610.191 825.061 589.629L821.061 589.628ZM748.856 591.629H823.061V587.629H748.856V591.629ZM744.585 621.151C748.725 611.157 750.856 600.446 750.856 589.629H746.856C746.856 599.921 744.828 610.112 740.89 619.62L744.585 621.151ZM726.729 647.875C734.378 640.226 740.446 631.145 744.585 621.151L740.89 619.62C736.951 629.129 731.178 637.769 723.901 645.046L726.729 647.875ZM700.006 665.731C710 661.591 719.08 655.524 726.729 647.875L723.901 645.046C716.623 652.324 707.984 658.096 698.475 662.035L700.006 665.731ZM668.483 672.001C679.301 672.001 690.012 669.87 700.006 665.731L698.475 662.035C688.966 665.974 678.775 668.001 668.483 668.001V672.001ZM636.961 665.731C646.955 669.87 657.666 672.001 668.483 672.001V668.001C658.191 668.001 648 665.974 638.491 662.035L636.961 665.731ZM610.237 647.875C617.886 655.524 626.967 661.591 636.961 665.731L638.491 662.035C628.983 658.096 620.343 652.324 613.066 645.046L610.237 647.875ZM592.381 621.151C596.521 631.145 602.588 640.226 610.237 647.875L613.066 645.046C605.788 637.769 600.015 629.129 596.077 619.62L592.381 621.151ZM586.111 589.629C586.111 600.446 588.242 611.157 592.381 621.151L596.077 619.62C592.138 610.112 590.111 599.921 590.111 589.629H586.111ZM513.906 591.629H588.111V587.629H513.906V591.629ZM560.638 697.408C532.048 668.818 515.962 630.058 515.906 589.626L511.906 589.631C511.963 631.122 528.471 670.898 557.81 700.236L560.638 697.408ZM668.419 525.131C633.103 525.102 598.588 514.602 569.24 494.957L567.015 498.281C597.021 518.366 632.308 529.102 668.416 529.131L668.419 525.131ZM736.768 511.593C715.095 520.55 691.87 525.151 668.419 525.131L668.416 529.131C692.392 529.151 716.137 524.448 738.296 515.29L736.768 511.593ZM794.733 472.929C778.138 489.498 758.441 502.637 736.768 511.593L738.296 515.29C760.454 506.133 780.592 492.7 797.559 475.759L794.733 472.929ZM833.487 415.024C824.497 436.683 811.328 456.359 794.733 472.929L797.559 475.759C814.526 458.819 827.99 438.702 837.182 416.558L833.487 415.024ZM847.131 346.696C847.114 370.147 842.478 393.365 833.487 415.024L837.182 416.558C846.374 394.413 851.114 370.675 851.131 346.699L847.131 346.696ZM817.111 247.47C836.71 276.849 847.157 311.38 847.131 346.696L851.131 346.699C851.158 310.592 840.477 275.287 820.439 245.25L817.111 247.47ZM737.024 181.644C769.642 195.184 797.512 218.091 817.111 247.47L820.439 245.25C800.401 215.213 771.906 191.793 738.558 177.95L737.024 181.644ZM633.863 171.405C668.506 164.541 704.406 168.105 737.024 181.644L738.558 177.95C705.209 164.107 668.505 160.464 633.086 167.481L633.863 171.405ZM542.399 220.203C567.391 195.25 599.22 178.268 633.863 171.405L633.086 167.481C597.667 174.498 565.124 191.86 539.573 217.372L542.399 220.203ZM493.459 311.591C500.376 276.959 517.407 245.156 542.399 220.203L539.573 217.372C514.021 242.884 496.608 275.4 489.536 310.808L493.459 311.591ZM503.538 414.768C490.049 382.129 486.542 346.224 493.459 311.591L489.536 310.808C482.464 346.216 486.05 382.926 499.841 416.296L503.538 414.768ZM569.24 494.957C539.891 475.313 517.027 447.407 503.538 414.768L499.841 416.296C513.632 449.666 537.009 478.197 567.015 498.281L569.24 494.957ZM1046.15 742.14C1010.82 742.166 976.276 731.711 946.889 712.098L944.668 715.425C974.714 735.477 1010.03 746.166 1046.16 746.14L1046.15 742.14ZM1172.24 689.772C1138.79 723.219 1093.45 742.049 1046.15 742.14L1046.16 746.14C1094.52 746.047 1140.87 726.796 1175.06 692.6L1172.24 689.772ZM1224.6 563.686C1224.51 610.987 1205.68 656.325 1172.24 689.772L1175.06 692.6C1209.26 658.405 1228.51 612.053 1228.6 563.694L1224.6 563.686ZM1194.56 464.424C1214.18 493.812 1224.63 528.357 1224.6 563.688L1228.6 563.691C1228.63 527.568 1217.94 492.25 1197.89 462.204L1194.56 464.424ZM1114.42 398.594C1147.06 412.127 1174.95 435.037 1194.56 464.424L1197.89 462.204C1177.84 432.158 1149.32 408.735 1115.96 394.899L1114.42 398.594ZM1011.21 388.401C1045.87 381.514 1081.79 385.062 1114.42 398.594L1115.96 394.899C1082.59 381.064 1045.86 377.437 1010.43 384.477L1011.21 388.401ZM919.746 437.281C944.729 412.298 976.561 395.287 1011.21 388.401L1010.43 384.477C975.005 391.518 942.46 408.91 916.917 434.453L919.746 437.281ZM870.865 528.75C877.752 494.096 894.763 462.264 919.746 437.281L916.917 434.453C891.375 459.995 873.983 492.541 866.942 527.971L870.865 528.75ZM881.059 631.958C867.526 599.322 863.979 563.404 870.865 528.75L866.942 527.971C859.901 563.4 863.528 600.123 877.364 633.491L881.059 631.958ZM946.889 712.098C917.501 692.485 894.591 664.595 881.059 631.958L877.364 633.491C891.2 666.859 914.622 695.373 944.668 715.425L946.889 712.098ZM1150.71 563.69C1150.71 584.369 1144.58 604.585 1133.09 621.779L1136.42 624.002C1148.35 606.149 1154.71 585.161 1154.71 563.69H1150.71ZM1142.77 523.666C1148.02 536.355 1150.72 549.955 1150.71 563.688L1154.71 563.691C1154.72 549.432 1151.92 535.312 1146.47 522.137L1142.77 523.666ZM1120.11 489.736C1129.82 499.447 1137.52 510.977 1142.77 523.666L1146.47 522.137C1141.01 508.961 1133.02 496.99 1122.94 486.908L1120.11 489.736ZM1086.18 467.073C1098.87 472.324 1110.4 480.026 1120.11 489.736L1122.94 486.908C1112.85 476.826 1100.88 468.829 1087.71 463.377L1086.18 467.073ZM1046.16 459.131C1059.89 459.123 1073.49 461.821 1086.18 467.073L1087.71 463.377C1074.53 457.924 1060.41 455.122 1046.15 455.131L1046.16 459.131ZM988.065 476.753C1005.26 465.264 1025.47 459.131 1046.15 459.131V455.131C1024.68 455.131 1003.69 461.498 985.842 473.427L988.065 476.753ZM949.555 523.677C957.468 504.571 970.87 488.242 988.065 476.753L985.842 473.427C967.99 485.355 954.076 502.31 945.859 522.146L949.555 523.677ZM943.605 584.088C939.57 563.806 941.641 542.783 949.555 523.677L945.859 522.146C937.643 541.983 935.493 563.81 939.682 584.868L943.605 584.088ZM972.22 637.624C957.597 623.001 947.639 604.37 943.605 584.088L939.682 584.868C943.87 605.927 954.21 625.27 969.392 640.452L972.22 637.624ZM1025.76 666.239C1005.47 662.205 986.843 652.246 972.22 637.624L969.392 640.452C984.574 655.634 1003.92 665.973 1024.98 670.162L1025.76 666.239ZM1086.17 660.289C1067.06 668.203 1046.04 670.274 1025.76 666.239L1024.98 670.162C1046.03 674.351 1067.86 672.201 1087.7 663.985L1086.17 660.289ZM1133.09 621.779C1121.6 638.974 1105.27 652.375 1086.17 660.289L1087.7 663.985C1107.53 655.768 1124.49 641.854 1136.42 624.002L1133.09 621.779ZM772.976 346.698C772.976 367.377 766.844 387.593 755.355 404.787L758.68 407.009C770.609 389.157 776.976 368.168 776.976 346.698H772.976ZM742.303 272.812C761.903 292.412 772.933 318.982 772.976 346.701L776.976 346.695C776.931 317.917 765.48 290.332 745.132 269.983L742.303 272.812ZM668.414 242.139C696.133 242.182 722.703 253.212 742.303 272.812L745.132 269.983C724.783 249.635 697.197 238.184 668.42 238.139L668.414 242.139ZM610.328 259.76C627.522 248.271 647.738 242.139 668.417 242.139V238.139C646.946 238.139 625.958 244.506 608.105 256.435L610.328 259.76ZM571.818 306.685C579.732 287.579 593.133 271.249 610.328 259.76L608.105 256.435C590.253 268.363 576.339 285.318 568.122 305.154L571.818 306.685ZM565.868 367.096C561.833 346.814 563.904 325.79 571.818 306.685L568.122 305.154C559.906 324.991 557.756 346.818 561.945 367.876L565.868 367.096ZM594.483 420.632C579.861 406.009 569.902 387.378 565.868 367.096L561.945 367.876C566.133 388.935 576.473 408.278 591.655 423.46L594.483 420.632ZM648.019 449.247C627.737 445.213 609.106 435.254 594.483 420.632L591.655 423.46C606.837 438.642 626.18 448.981 647.239 453.17L648.019 449.247ZM708.43 443.297C689.325 451.211 668.301 453.281 648.019 449.247L647.239 453.17C668.297 457.359 690.124 455.209 709.961 446.993L708.43 443.297ZM755.355 404.787C743.865 421.982 727.536 435.383 708.43 443.297L709.961 446.993C729.797 438.776 746.752 424.862 758.68 407.009L755.355 404.787Z" fill="white" fill-opacity="0.1" mask="url(#path-4-inside-1_261_22517)"/>
</g>
<mask id="mask1_261_22517" style="mask-type:alpha" maskUnits="userSpaceOnUse" x="861" y="539" width="369" height="589">
<rect x="861" y="539" width="369" height="589" fill="#C4C4C4"/>
</mask>
<g mask="url(#mask1_261_22517)">
<mask id="path-7-inside-2_261_22517" fill="white">
<path fill-rule="evenodd" clip-rule="evenodd" d="M1155.35 584.317C1126.39 555.353 1087.12 539.057 1046.15 539C1005.17 539.022 965.879 555.318 936.91 584.305C907.942 613.292 891.671 652.597 891.676 693.577C891.638 719.412 898.151 744.835 910.606 767.469C929.895 751.762 951.844 739.643 975.412 731.686C969.015 719.985 965.706 706.847 965.798 693.511C965.646 682.861 967.612 672.287 971.582 662.403C975.552 652.519 981.447 643.522 988.925 635.937C996.403 628.351 1005.31 622.328 1015.14 618.217C1024.97 614.105 1035.51 611.988 1046.16 611.988C1056.81 611.988 1067.36 614.105 1077.19 618.217C1087.01 622.328 1095.92 628.351 1103.4 635.937C1110.88 643.522 1116.77 652.519 1120.74 662.403C1124.71 672.287 1126.68 682.861 1126.53 693.511C1126.49 706.806 1123.2 719.889 1116.95 731.62C1140.51 739.577 1162.46 751.696 1181.75 767.403C1194.21 744.769 1200.72 719.346 1200.68 693.511C1200.62 652.548 1184.32 613.281 1155.35 584.317ZM559.224 1071.82C588.188 1100.79 627.456 1117.08 668.417 1117.14C688.717 1117.15 708.819 1113.16 727.577 1105.4C746.334 1097.64 763.379 1086.26 777.739 1071.91C792.099 1057.56 803.493 1040.53 811.269 1021.78C819.045 1003.03 823.052 982.928 823.061 962.629H748.856C748.856 973.183 746.777 983.634 742.738 993.386C738.699 1003.14 732.778 1012 725.315 1019.46C717.852 1026.92 708.992 1032.84 699.24 1036.88C689.489 1040.92 679.038 1043 668.483 1043C657.929 1043 647.477 1040.92 637.726 1036.88C627.975 1032.84 619.115 1026.92 611.651 1019.46C604.188 1012 598.268 1003.14 594.229 993.386C590.19 983.634 588.111 973.183 588.111 962.629H513.906C513.963 1003.59 530.26 1042.86 559.224 1071.82ZM568.127 869.619C597.804 889.484 632.706 900.102 668.417 900.131C692.131 900.151 715.616 895.499 737.532 886.442C759.448 877.385 779.365 864.099 796.146 847.344C812.927 830.589 826.243 810.693 835.335 788.791C844.426 766.889 849.114 743.411 849.131 719.698C849.157 683.986 838.593 649.068 818.775 619.36C798.957 589.652 770.774 566.488 737.791 552.797C704.808 539.106 668.506 535.502 633.475 542.443C598.444 549.383 566.257 566.555 540.986 591.787C515.714 617.02 498.492 649.18 491.497 684.2C484.503 719.22 488.05 755.528 501.69 788.532C515.33 821.536 538.45 849.755 568.127 869.619ZM945.778 1086.76C975.495 1106.59 1010.43 1117.17 1046.15 1117.14C1093.98 1117.05 1139.83 1098.01 1173.65 1064.19C1207.47 1030.37 1226.51 984.52 1226.6 936.69C1226.63 900.963 1216.06 866.031 1196.23 836.314C1176.39 806.597 1148.19 783.431 1115.19 769.747C1082.19 756.063 1045.87 752.476 1010.82 759.439C975.783 766.403 943.594 783.604 918.331 808.867C893.069 834.13 875.867 866.319 868.903 901.36C861.94 936.402 865.527 972.722 879.211 1005.72C892.896 1038.73 916.062 1066.93 945.778 1086.76ZM1134.75 995.89C1146.46 978.367 1152.71 957.765 1152.71 936.69C1152.72 922.694 1149.97 908.833 1144.62 895.901C1139.27 882.969 1131.42 871.219 1121.52 861.322C1111.63 851.426 1099.87 843.577 1086.94 838.225C1074.01 832.873 1060.15 830.123 1046.15 830.131C1025.08 830.131 1004.48 836.381 986.953 848.09C969.43 859.798 955.772 876.441 947.707 895.912C939.642 915.383 937.532 936.808 941.643 957.478C945.755 978.149 955.903 997.135 970.806 1012.04C985.708 1026.94 1004.7 1037.09 1025.37 1041.2C1046.04 1045.31 1067.46 1043.2 1086.93 1035.14C1106.4 1027.07 1123.05 1013.41 1134.75 995.89ZM757.017 778.898C768.726 761.375 774.976 740.773 774.976 719.698C774.932 691.45 763.691 664.372 743.717 644.398C723.743 624.423 696.665 613.183 668.417 613.139C647.342 613.139 626.74 619.389 609.217 631.097C591.693 642.806 578.035 659.448 569.97 678.919C561.905 698.39 559.795 719.816 563.906 740.486C568.018 761.156 578.167 780.143 593.069 795.046C607.972 809.948 626.958 820.097 647.629 824.209C668.299 828.32 689.724 826.21 709.195 818.145C728.666 810.08 745.309 796.422 757.017 778.898Z"/>
</mask>
<path d="M1046.15 539L1046.16 534L1046.15 534L1046.15 539ZM891.676 693.577L896.676 693.585V693.577L891.676 693.577ZM910.606 767.469L906.226 769.88L909.115 775.131L913.763 771.346L910.606 767.469ZM975.412 731.686L977.011 736.423L982.658 734.517L979.799 729.287L975.412 731.686ZM965.798 693.511L970.798 693.546L970.799 693.493L970.798 693.44L965.798 693.511ZM971.582 662.403L976.222 664.266V664.266L971.582 662.403ZM988.925 635.937L985.364 632.427L988.925 635.937ZM1015.14 618.217L1017.07 622.829V622.829L1015.14 618.217ZM1077.19 618.217L1079.12 613.604V613.604L1077.19 618.217ZM1103.4 635.937L1106.96 632.427L1106.96 632.427L1103.4 635.937ZM1120.74 662.403L1125.38 660.539H1125.38L1120.74 662.403ZM1126.53 693.511L1121.53 693.44L1121.53 693.469L1121.53 693.498L1126.53 693.511ZM1116.95 731.62L1112.53 729.267L1109.76 734.471L1115.35 736.357L1116.95 731.62ZM1181.75 767.403L1178.59 771.28L1183.24 775.065L1186.13 769.814L1181.75 767.403ZM1200.68 693.511L1205.68 693.504V693.504L1200.68 693.511ZM668.417 1117.14L668.41 1122.14H668.415L668.417 1117.14ZM559.224 1071.82L562.759 1068.29H562.759L559.224 1071.82ZM727.577 1105.4L729.488 1110.02H729.488L727.577 1105.4ZM777.739 1071.91L781.273 1075.45L777.739 1071.91ZM823.061 962.629L828.061 962.631L828.063 957.629H823.061V962.629ZM748.856 962.629V957.629H743.856V962.629H748.856ZM742.738 993.386L747.357 995.299L742.738 993.386ZM725.315 1019.46L721.78 1015.92H721.78L725.315 1019.46ZM699.24 1036.88L701.154 1041.5L699.24 1036.88ZM637.726 1036.88L635.813 1041.5L637.726 1036.88ZM611.651 1019.46L615.187 1015.92H615.187L611.651 1019.46ZM594.229 993.386L589.609 995.299H589.609L594.229 993.386ZM588.111 962.629H593.111V957.629H588.111V962.629ZM513.906 962.629V957.629H508.899L508.906 962.635L513.906 962.629ZM668.417 900.131L668.421 895.131L668.417 900.131ZM568.127 869.619L565.346 873.774V873.774L568.127 869.619ZM737.532 886.442L735.622 881.821L737.532 886.442ZM835.335 788.791L839.953 790.708V790.708L835.335 788.791ZM849.131 719.698L854.131 719.701L849.131 719.698ZM818.775 619.36L822.934 616.585L818.775 619.36ZM737.791 552.797L735.874 557.415L737.791 552.797ZM633.475 542.443L634.446 547.347L633.475 542.443ZM491.497 684.2L486.594 683.22L491.497 684.2ZM501.69 788.532L506.311 786.622L501.69 788.532ZM1046.15 1117.14L1046.16 1122.14H1046.16L1046.15 1117.14ZM1173.65 1064.19L1177.19 1067.72L1173.65 1064.19ZM1226.6 936.69L1231.6 936.699V936.693L1226.6 936.69ZM1196.23 836.314L1192.07 839.09V839.09L1196.23 836.314ZM1115.19 769.747L1113.27 774.366L1115.19 769.747ZM918.331 808.867L914.796 805.331L918.331 808.867ZM868.903 901.36L873.808 902.335L868.903 901.36ZM879.211 1005.72L874.593 1007.64V1007.64L879.211 1005.72ZM1152.71 936.69L1147.71 936.687V936.69H1152.71ZM1134.75 995.89L1138.91 998.668L1134.75 995.89ZM1144.62 895.901L1149.24 893.989L1144.62 895.901ZM1121.52 861.322L1125.06 857.787L1121.52 861.322ZM1046.15 830.131V835.131H1046.16L1046.15 830.131ZM986.953 848.09L984.176 843.932L986.953 848.09ZM947.707 895.912L943.087 893.998L947.707 895.912ZM941.643 957.478L936.739 958.454L941.643 957.478ZM1025.37 1041.2L1024.39 1046.1L1025.37 1041.2ZM774.976 719.698H779.976V719.69L774.976 719.698ZM757.017 778.898L752.86 776.12V776.12L757.017 778.898ZM743.717 644.398L747.253 640.862L743.717 644.398ZM668.417 613.139L668.425 608.139H668.417V613.139ZM609.217 631.097L606.439 626.94L609.217 631.097ZM569.97 678.919L574.589 680.833L569.97 678.919ZM563.906 740.486L568.81 739.511L563.906 740.486ZM593.069 795.046L596.605 791.51L593.069 795.046ZM647.629 824.209L648.604 819.305L647.629 824.209ZM709.195 818.145L711.109 822.764H711.109L709.195 818.145ZM1046.15 544C1085.79 544.055 1123.79 559.825 1151.82 587.853L1158.89 580.781C1128.99 550.882 1088.45 534.059 1046.16 534L1046.15 544ZM940.447 587.839C968.478 559.79 1006.5 544.021 1046.16 544L1046.15 534C1003.85 534.023 963.279 550.846 933.374 580.77L940.447 587.839ZM896.676 693.577C896.671 653.922 912.416 615.889 940.447 587.839L933.374 580.77C903.468 610.695 886.671 651.272 886.676 693.578L896.676 693.577ZM914.987 765.059C902.939 743.165 896.639 718.574 896.676 693.585L886.676 693.57C886.637 720.25 893.363 746.505 906.226 769.88L914.987 765.059ZM973.813 726.949C949.678 735.097 927.201 747.508 907.449 763.592L913.763 771.346C932.588 756.017 954.01 744.189 977.011 736.423L973.813 726.949ZM960.798 693.477C960.7 707.662 964.22 721.638 971.025 734.084L979.799 729.287C973.81 718.332 970.712 706.031 970.798 693.546L960.798 693.477ZM966.942 660.539C962.725 671.038 960.637 682.27 960.799 693.583L970.798 693.44C970.655 683.452 972.498 673.535 976.222 664.266L966.942 660.539ZM985.364 632.427C977.421 640.484 971.159 650.04 966.942 660.539L976.222 664.266C979.945 654.997 985.473 646.561 992.486 639.447L985.364 632.427ZM1013.21 613.604C1002.77 617.971 993.307 624.369 985.364 632.427L992.486 639.447C999.498 632.333 1007.85 626.685 1017.07 622.829L1013.21 613.604ZM1046.16 606.988C1034.85 606.988 1023.65 609.237 1013.21 613.604L1017.07 622.829C1026.28 618.973 1036.17 616.988 1046.16 616.988V606.988ZM1079.12 613.604C1068.68 609.237 1057.48 606.988 1046.16 606.988V616.988C1056.15 616.988 1066.04 618.973 1075.26 622.829L1079.12 613.604ZM1106.96 632.427C1099.02 624.369 1089.55 617.971 1079.12 613.604L1075.26 622.829C1084.47 626.685 1092.83 632.333 1099.84 639.447L1106.96 632.427ZM1125.38 660.539C1121.17 650.04 1114.9 640.484 1106.96 632.427L1099.84 639.447C1106.85 646.561 1112.38 654.997 1116.1 664.266L1125.38 660.539ZM1131.53 693.583C1131.69 682.27 1129.6 671.038 1125.38 660.539L1116.1 664.266C1119.83 673.535 1121.67 683.452 1121.53 693.44L1131.53 693.583ZM1121.36 733.972C1128 721.521 1131.49 707.635 1131.53 693.525L1121.53 693.498C1121.49 705.976 1118.4 718.256 1112.53 729.267L1121.36 733.972ZM1184.91 763.526C1165.16 747.442 1142.68 735.031 1118.55 726.883L1115.35 736.357C1138.35 744.123 1159.77 755.951 1178.59 771.28L1184.91 763.526ZM1195.68 693.519C1195.72 718.508 1189.42 743.099 1177.37 764.993L1186.13 769.814C1198.99 746.439 1205.72 720.184 1205.68 693.504L1195.68 693.519ZM1151.82 587.853C1179.85 615.881 1195.62 653.879 1195.68 693.519L1205.68 693.504C1205.62 651.217 1188.79 610.681 1158.89 580.781L1151.82 587.853ZM668.424 1112.14C628.786 1112.09 590.788 1096.31 562.759 1068.29L555.688 1075.36C585.589 1105.26 626.125 1122.08 668.41 1122.14L668.424 1112.14ZM725.665 1100.78C707.514 1108.29 688.062 1112.15 668.419 1112.14L668.415 1122.14C689.371 1122.15 710.124 1118.03 729.488 1110.02L725.665 1100.78ZM774.205 1068.37C760.31 1082.26 743.816 1093.27 725.665 1100.78L729.488 1110.02C748.852 1102.01 766.449 1090.26 781.273 1075.45L774.205 1068.37ZM806.65 1019.86C799.126 1038.01 788.101 1054.49 774.205 1068.37L781.273 1075.45C796.098 1060.64 807.86 1043.05 815.887 1023.69L806.65 1019.86ZM818.061 962.626C818.052 982.269 814.175 1001.72 806.65 1019.86L815.887 1023.69C823.915 1004.34 828.052 983.587 828.061 962.631L818.061 962.626ZM748.856 967.629H823.061V957.629H748.856V967.629ZM747.357 995.299C751.647 984.941 753.856 973.84 753.856 962.629H743.856C743.856 972.527 741.906 982.328 738.118 991.472L747.357 995.299ZM728.851 1023C736.778 1015.07 743.067 1005.66 747.357 995.299L738.118 991.472C734.33 1000.62 728.779 1008.93 721.78 1015.92L728.851 1023ZM701.154 1041.5C711.512 1037.21 720.923 1030.92 728.851 1023L721.78 1015.92C714.781 1022.92 706.472 1028.48 697.327 1032.26L701.154 1041.5ZM668.483 1048C679.694 1048 690.796 1045.79 701.154 1041.5L697.327 1032.26C688.182 1036.05 678.381 1038 668.483 1038V1048ZM635.813 1041.5C646.171 1045.79 657.272 1048 668.483 1048V1038C658.585 1038 648.784 1036.05 639.64 1032.26L635.813 1041.5ZM608.116 1023C616.043 1030.92 625.455 1037.21 635.813 1041.5L639.64 1032.26C630.495 1028.48 622.186 1022.92 615.187 1015.92L608.116 1023ZM589.609 995.299C593.9 1005.66 600.188 1015.07 608.116 1023L615.187 1015.92C608.188 1008.93 602.636 1000.62 598.848 991.472L589.609 995.299ZM583.111 962.629C583.111 973.84 585.319 984.941 589.609 995.299L598.848 991.472C595.06 982.328 593.111 972.527 593.111 962.629H583.111ZM513.906 967.629H588.111V957.629H513.906V967.629ZM562.759 1068.29C534.731 1040.26 518.961 1002.26 518.906 962.622L508.906 962.635C508.964 1004.92 525.788 1045.46 555.688 1075.36L562.759 1068.29ZM668.421 895.131C633.699 895.103 599.764 884.779 570.908 865.464L565.346 873.774C595.845 894.189 631.713 905.101 668.413 905.131L668.421 895.131ZM735.622 881.821C714.313 890.627 691.478 895.15 668.421 895.131L668.413 905.131C692.783 905.151 716.919 900.371 739.442 891.063L735.622 881.821ZM792.613 843.806C776.297 860.097 756.931 873.014 735.622 881.821L739.442 891.063C761.964 881.755 782.433 868.101 799.679 850.882L792.613 843.806ZM830.717 786.874C821.877 808.169 808.929 827.515 792.613 843.806L799.679 850.882C816.924 833.663 830.61 813.216 839.953 790.708L830.717 786.874ZM844.131 719.694C844.115 742.751 839.556 765.579 830.717 786.874L839.953 790.708C849.296 768.2 854.114 744.072 854.131 719.701L844.131 719.694ZM814.616 622.135C833.885 651.02 844.157 684.971 844.131 719.694L854.131 719.701C854.158 683.001 843.302 647.116 822.934 616.585L814.616 622.135ZM735.874 557.415C767.944 570.727 795.346 593.25 814.616 622.135L822.934 616.585C802.567 586.055 773.604 562.249 739.708 548.179L735.874 557.415ZM634.446 547.347C668.507 540.599 703.804 544.103 735.874 557.415L739.708 548.179C705.811 534.109 668.504 530.406 632.503 537.538L634.446 547.347ZM544.518 595.326C569.09 570.792 600.385 554.095 634.446 547.347L632.503 537.538C596.502 544.67 563.424 562.318 537.453 588.249L544.518 595.326ZM496.401 685.179C503.201 651.129 519.947 619.86 544.518 595.326L537.453 588.249C511.481 614.18 493.783 647.23 486.594 683.22L496.401 685.179ZM506.311 786.622C493.048 754.532 489.6 719.229 496.401 685.179L486.594 683.22C479.406 719.21 483.051 756.523 497.069 790.442L506.311 786.622ZM570.908 865.464C542.053 846.15 519.573 818.713 506.311 786.622L497.069 790.442C511.086 824.36 534.847 853.36 565.346 873.774L570.908 865.464ZM1046.15 1112.14C1011.41 1112.17 977.448 1101.89 948.554 1082.6L943.003 1090.92C973.542 1111.3 1009.44 1122.17 1046.16 1122.14L1046.15 1112.14ZM1170.12 1060.65C1137.23 1093.54 1092.65 1112.05 1046.14 1112.14L1046.16 1122.14C1095.32 1122.05 1142.43 1102.48 1177.19 1067.72L1170.12 1060.65ZM1221.6 936.68C1221.52 983.188 1203 1027.76 1170.12 1060.65L1177.19 1067.72C1211.94 1032.97 1231.51 985.852 1231.6 936.699L1221.6 936.68ZM1192.07 839.09C1211.35 867.984 1221.63 901.948 1221.6 936.686L1231.6 936.693C1231.63 899.977 1220.77 864.078 1200.38 833.538L1192.07 839.09ZM1113.27 774.366C1145.36 787.671 1172.78 810.196 1192.07 839.09L1200.38 833.538C1180 802.999 1151.02 779.191 1117.1 765.128L1113.27 774.366ZM1011.8 764.343C1045.87 757.572 1081.19 761.06 1113.27 774.366L1117.1 765.128C1083.19 751.065 1045.86 747.379 1009.85 754.535L1011.8 764.343ZM921.867 812.403C946.43 787.839 977.728 771.114 1011.8 764.343L1009.85 754.535C973.838 761.691 940.758 779.369 914.796 805.331L921.867 812.403ZM873.808 902.335C880.578 868.263 897.304 836.966 921.867 812.403L914.796 805.331C888.834 831.294 871.156 864.374 863.999 900.386L873.808 902.335ZM883.83 1003.81C870.525 971.721 867.037 936.406 873.808 902.335L863.999 900.386C856.843 936.398 860.53 973.723 874.593 1007.64L883.83 1003.81ZM948.554 1082.6C919.66 1063.32 897.135 1035.9 883.83 1003.81L874.593 1007.64C888.656 1041.56 912.463 1070.54 943.003 1090.92L948.554 1082.6ZM1147.71 936.69C1147.71 956.776 1141.76 976.411 1130.6 993.113L1138.91 998.668C1151.17 980.323 1157.71 958.754 1157.71 936.69H1147.71ZM1140 897.813C1145.1 910.138 1147.72 923.348 1147.71 936.687L1157.71 936.693C1157.72 922.04 1154.84 907.529 1149.24 893.989L1140 897.813ZM1117.99 864.858C1127.42 874.29 1134.9 885.488 1140 897.813L1149.24 893.989C1143.64 880.45 1135.42 868.148 1125.06 857.787L1117.99 864.858ZM1085.03 842.845C1097.36 847.946 1108.55 855.426 1117.99 864.858L1125.06 857.787C1114.7 847.425 1102.39 839.208 1088.85 833.605L1085.03 842.845ZM1046.16 835.131C1059.5 835.123 1072.71 837.744 1085.03 842.845L1088.85 833.605C1075.32 828.002 1060.8 825.122 1046.15 825.131L1046.16 835.131ZM989.731 852.247C1006.43 841.088 1026.07 835.131 1046.15 835.131V825.131C1024.09 825.131 1002.52 831.674 984.176 843.932L989.731 852.247ZM952.326 897.825C960.013 879.268 973.03 863.406 989.731 852.247L984.176 843.932C965.83 856.19 951.531 873.613 943.087 893.998L952.326 897.825ZM946.547 956.503C942.628 936.802 944.64 916.382 952.326 897.825L943.087 893.998C934.644 914.383 932.435 936.813 936.739 958.454L946.547 956.503ZM974.341 1008.5C960.138 994.299 950.466 976.203 946.547 956.503L936.739 958.454C941.044 980.094 951.669 999.972 967.27 1015.57L974.341 1008.5ZM1026.34 1036.3C1006.64 1032.38 988.545 1022.71 974.341 1008.5L967.27 1015.57C982.872 1031.18 1002.75 1041.8 1024.39 1046.1L1026.34 1036.3ZM1085.02 1030.52C1066.46 1038.2 1046.04 1040.22 1026.34 1036.3L1024.39 1046.1C1046.03 1050.41 1068.46 1048.2 1088.85 1039.76L1085.02 1030.52ZM1130.6 993.113C1119.44 1009.81 1103.58 1022.83 1085.02 1030.52L1088.85 1039.76C1109.23 1031.31 1126.65 1017.01 1138.91 998.668L1130.6 993.113ZM769.976 719.698C769.976 739.784 764.02 759.419 752.86 776.12L761.175 781.676C773.433 763.33 779.976 741.762 779.976 719.698H769.976ZM740.182 647.933C759.22 666.971 769.934 692.781 769.976 719.705L779.976 719.69C779.93 690.119 768.163 661.772 747.253 640.862L740.182 647.933ZM668.41 618.139C695.334 618.181 721.143 628.895 740.182 647.933L747.253 640.862C726.343 619.952 697.996 608.185 668.425 608.139L668.41 618.139ZM611.994 635.255C628.696 624.095 648.331 618.139 668.417 618.139V608.139C646.353 608.139 624.784 614.682 606.439 626.94L611.994 635.255ZM574.589 680.833C582.276 662.275 595.293 646.414 611.994 635.255L606.439 626.94C588.093 639.198 573.794 656.621 565.351 677.006L574.589 680.833ZM568.81 739.511C564.892 719.81 566.903 699.39 574.589 680.833L565.351 677.006C556.907 697.391 554.698 719.821 559.002 741.462L568.81 739.511ZM596.605 791.51C582.401 777.307 572.729 759.211 568.81 739.511L559.002 741.462C563.307 763.102 573.932 782.98 589.534 798.581L596.605 791.51ZM648.604 819.305C628.904 815.386 610.808 805.714 596.605 791.51L589.534 798.581C605.135 814.183 625.013 824.808 646.653 829.112L648.604 819.305ZM707.282 813.525C688.725 821.212 668.305 823.223 648.604 819.305L646.653 829.112C668.294 833.417 690.724 831.208 711.109 822.764L707.282 813.525ZM752.86 776.12C741.701 792.822 725.839 805.839 707.282 813.525L711.109 822.764C731.494 814.321 748.917 800.022 761.175 781.676L752.86 776.12Z" fill="url(#paint2_linear_261_22517)" fill-opacity="0.3" mask="url(#path-7-inside-2_261_22517)"/>
</g>
<mask id="mask2_261_22517" style="mask-type:alpha" maskUnits="userSpaceOnUse" x="232" y="295" width="369" height="589">
<rect x="232" y="295" width="369" height="589" fill="url(#paint3_linear_261_22517)" fill-opacity="0.2"/>
<rect x="233" y="296" width="367" height="587" stroke="white" stroke-opacity="0.1" stroke-width="2"/>
</mask>
<g mask="url(#mask2_261_22517)">
<mask id="path-11-inside-3_261_22517" fill="white">
<path fill-rule="evenodd" clip-rule="evenodd" d="M899.353 340.317C870.387 311.353 831.117 295.057 790.154 295C749.173 295.022 709.879 311.318 680.91 340.305C651.942 369.292 635.671 408.597 635.676 449.577C635.638 475.412 642.151 500.835 654.606 523.469C673.895 507.762 695.844 495.643 719.412 487.686C713.015 475.985 709.706 462.847 709.798 449.511C709.646 438.861 711.612 428.287 715.582 418.403C719.552 408.519 725.447 399.522 732.925 391.937C740.403 384.351 749.313 378.328 759.14 374.217C768.966 370.105 779.511 367.988 790.162 367.988C800.814 367.988 811.359 370.105 821.185 374.217C831.011 378.328 839.922 384.351 847.4 391.937C854.877 399.522 860.773 408.519 864.743 418.403C868.713 428.287 870.679 438.861 870.526 449.511C870.49 462.806 867.201 475.889 860.946 487.62C884.514 495.577 906.463 507.696 925.752 523.403C938.206 500.769 944.719 475.346 944.682 449.511C944.621 408.548 928.32 369.281 899.353 340.317ZM303.224 827.822C332.188 856.786 371.456 873.083 412.417 873.14C432.717 873.149 452.819 869.159 471.577 861.399C490.334 853.638 507.379 842.26 521.739 827.912C536.099 813.564 547.493 796.529 555.269 777.778C563.045 759.027 567.052 738.928 567.061 718.629H492.856C492.856 729.183 490.777 739.634 486.738 749.386C482.699 759.137 476.778 767.997 469.315 775.46C461.852 782.924 452.992 788.844 443.24 792.883C433.489 796.922 423.038 799.001 412.483 799.001C401.929 799.001 391.477 796.922 381.726 792.883C371.975 788.844 363.115 782.924 355.651 775.46C348.188 767.997 342.268 759.137 338.229 749.386C334.19 739.634 332.111 729.183 332.111 718.629H257.906C257.963 759.59 274.26 798.858 303.224 827.822ZM312.127 625.619C341.804 645.484 376.706 656.102 412.417 656.131C436.131 656.151 459.616 651.499 481.532 642.442C503.448 633.385 523.365 620.099 540.146 603.344C556.927 586.589 570.243 566.693 579.335 544.791C588.426 522.889 593.114 499.411 593.131 475.698C593.157 439.986 582.593 405.068 562.775 375.36C542.957 345.652 514.774 322.488 481.791 308.797C448.808 295.106 412.506 291.502 377.475 298.443C342.444 305.383 310.257 322.555 284.986 347.787C259.714 373.02 242.492 405.18 235.497 440.2C228.503 475.22 232.05 511.528 245.69 544.532C259.33 577.536 282.45 605.755 312.127 625.619ZM689.778 842.761C719.495 862.594 754.427 873.166 790.154 873.14C837.984 873.048 883.829 854.007 917.651 820.186C951.472 786.365 970.513 740.52 970.604 692.69C970.63 656.963 960.058 622.031 940.226 592.314C920.393 562.597 892.191 539.431 859.189 525.747C826.187 512.063 789.867 508.476 754.825 515.439C719.783 522.403 687.594 539.604 662.331 564.867C637.069 590.13 619.867 622.319 612.903 657.36C605.94 692.402 609.527 728.722 623.211 761.725C636.896 794.727 660.062 822.929 689.778 842.761ZM878.754 751.89C890.463 734.367 896.713 713.765 896.713 692.69C896.721 678.694 893.971 664.833 888.619 651.901C883.267 638.969 875.418 627.219 865.522 617.322C855.625 607.426 843.875 599.577 830.943 594.225C818.01 588.873 804.15 586.123 790.154 586.131C769.079 586.131 748.477 592.381 730.953 604.09C713.43 615.798 699.772 632.441 691.707 651.912C683.642 671.383 681.532 692.808 685.643 713.478C689.755 734.149 699.903 753.135 714.806 768.038C729.708 782.94 748.695 793.089 769.366 797.201C790.036 801.312 811.461 799.202 830.932 791.137C850.403 783.072 867.045 769.414 878.754 751.89ZM501.017 534.898C512.726 517.375 518.976 496.773 518.976 475.698C518.932 447.45 507.691 420.372 487.717 400.398C467.743 380.423 440.665 369.183 412.417 369.139C391.342 369.139 370.74 375.389 353.217 387.097C335.693 398.806 322.035 415.448 313.97 434.919C305.905 454.39 303.795 475.816 307.906 496.486C312.018 517.156 322.167 536.143 337.069 551.046C351.972 565.948 370.958 576.097 391.629 580.209C412.299 584.32 433.724 582.21 453.195 574.145C472.666 566.08 489.309 552.422 501.017 534.898Z"/>
</mask>
<path fill-rule="evenodd" clip-rule="evenodd" d="M899.353 340.317C870.387 311.353 831.117 295.057 790.154 295C749.173 295.022 709.879 311.318 680.91 340.305C651.942 369.292 635.671 408.597 635.676 449.577C635.638 475.412 642.151 500.835 654.606 523.469C673.895 507.762 695.844 495.643 719.412 487.686C713.015 475.985 709.706 462.847 709.798 449.511C709.646 438.861 711.612 428.287 715.582 418.403C719.552 408.519 725.447 399.522 732.925 391.937C740.403 384.351 749.313 378.328 759.14 374.217C768.966 370.105 779.511 367.988 790.162 367.988C800.814 367.988 811.359 370.105 821.185 374.217C831.011 378.328 839.922 384.351 847.4 391.937C854.877 399.522 860.773 408.519 864.743 418.403C868.713 428.287 870.679 438.861 870.526 449.511C870.49 462.806 867.201 475.889 860.946 487.62C884.514 495.577 906.463 507.696 925.752 523.403C938.206 500.769 944.719 475.346 944.682 449.511C944.621 408.548 928.32 369.281 899.353 340.317ZM303.224 827.822C332.188 856.786 371.456 873.083 412.417 873.14C432.717 873.149 452.819 869.159 471.577 861.399C490.334 853.638 507.379 842.26 521.739 827.912C536.099 813.564 547.493 796.529 555.269 777.778C563.045 759.027 567.052 738.928 567.061 718.629H492.856C492.856 729.183 490.777 739.634 486.738 749.386C482.699 759.137 476.778 767.997 469.315 775.46C461.852 782.924 452.992 788.844 443.24 792.883C433.489 796.922 423.038 799.001 412.483 799.001C401.929 799.001 391.477 796.922 381.726 792.883C371.975 788.844 363.115 782.924 355.651 775.46C348.188 767.997 342.268 759.137 338.229 749.386C334.19 739.634 332.111 729.183 332.111 718.629H257.906C257.963 759.59 274.26 798.858 303.224 827.822ZM312.127 625.619C341.804 645.484 376.706 656.102 412.417 656.131C436.131 656.151 459.616 651.499 481.532 642.442C503.448 633.385 523.365 620.099 540.146 603.344C556.927 586.589 570.243 566.693 579.335 544.791C588.426 522.889 593.114 499.411 593.131 475.698C593.157 439.986 582.593 405.068 562.775 375.36C542.957 345.652 514.774 322.488 481.791 308.797C448.808 295.106 412.506 291.502 377.475 298.443C342.444 305.383 310.257 322.555 284.986 347.787C259.714 373.02 242.492 405.18 235.497 440.2C228.503 475.22 232.05 511.528 245.69 544.532C259.33 577.536 282.45 605.755 312.127 625.619ZM689.778 842.761C719.495 862.594 754.427 873.166 790.154 873.14C837.984 873.048 883.829 854.007 917.651 820.186C951.472 786.365 970.513 740.52 970.604 692.69C970.63 656.963 960.058 622.031 940.226 592.314C920.393 562.597 892.191 539.431 859.189 525.747C826.187 512.063 789.867 508.476 754.825 515.439C719.783 522.403 687.594 539.604 662.331 564.867C637.069 590.13 619.867 622.319 612.903 657.36C605.94 692.402 609.527 728.722 623.211 761.725C636.896 794.727 660.062 822.929 689.778 842.761ZM878.754 751.89C890.463 734.367 896.713 713.765 896.713 692.69C896.721 678.694 893.971 664.833 888.619 651.901C883.267 638.969 875.418 627.219 865.522 617.322C855.625 607.426 843.875 599.577 830.943 594.225C818.01 588.873 804.15 586.123 790.154 586.131C769.079 586.131 748.477 592.381 730.953 604.09C713.43 615.798 699.772 632.441 691.707 651.912C683.642 671.383 681.532 692.808 685.643 713.478C689.755 734.149 699.903 753.135 714.806 768.038C729.708 782.94 748.695 793.089 769.366 797.201C790.036 801.312 811.461 799.202 830.932 791.137C850.403 783.072 867.045 769.414 878.754 751.89ZM501.017 534.898C512.726 517.375 518.976 496.773 518.976 475.698C518.932 447.45 507.691 420.372 487.717 400.398C467.743 380.423 440.665 369.183 412.417 369.139C391.342 369.139 370.74 375.389 353.217 387.097C335.693 398.806 322.035 415.448 313.97 434.919C305.905 454.39 303.795 475.816 307.906 496.486C312.018 517.156 322.167 536.143 337.069 551.046C351.972 565.948 370.958 576.097 391.629 580.209C412.299 584.32 433.724 582.21 453.195 574.145C472.666 566.08 489.309 552.422 501.017 534.898Z" fill="url(#paint4_linear_261_22517)" fill-opacity="0.2"/>
<path d="M790.154 295L790.157 293L790.153 293L790.154 295ZM635.676 449.577L637.676 449.58V449.577L635.676 449.577ZM654.606 523.469L652.854 524.433L654.01 526.534L655.869 525.02L654.606 523.469ZM719.412 487.686L720.052 489.581L722.31 488.818L721.167 486.726L719.412 487.686ZM709.798 449.511L711.798 449.525L711.798 449.504L711.798 449.483L709.798 449.511ZM715.582 418.403L717.438 419.148L715.582 418.403ZM732.925 391.937L731.501 390.533L732.925 391.937ZM759.14 374.217L759.911 376.062L759.14 374.217ZM821.185 374.217L821.957 372.372L821.185 374.217ZM847.4 391.937L848.824 390.533V390.533L847.4 391.937ZM864.743 418.403L866.599 417.657L864.743 418.403ZM870.526 449.511L868.527 449.483L868.526 449.494L868.526 449.506L870.526 449.511ZM860.946 487.62L859.181 486.679L858.071 488.76L860.306 489.515L860.946 487.62ZM925.752 523.403L924.489 524.954L926.348 526.468L927.504 524.367L925.752 523.403ZM944.682 449.511L946.682 449.509V449.508L944.682 449.511ZM412.417 873.14L412.415 875.14H412.416L412.417 873.14ZM303.224 827.822L304.638 826.408L303.224 827.822ZM471.577 861.399L472.341 863.247L471.577 861.399ZM521.739 827.912L523.153 829.327L521.739 827.912ZM567.061 718.629L569.061 718.629L569.062 716.629H567.061V718.629ZM492.856 718.629V716.629H490.856V718.629H492.856ZM486.738 749.386L488.585 750.151L486.738 749.386ZM469.315 775.46L467.901 774.046L467.901 774.046L469.315 775.46ZM443.24 792.883L444.006 794.731L443.24 792.883ZM381.726 792.883L380.961 794.731H380.961L381.726 792.883ZM355.651 775.46L357.066 774.046V774.046L355.651 775.46ZM338.229 749.386L336.381 750.151L338.229 749.386ZM332.111 718.629H334.111V716.629H332.111V718.629ZM257.906 718.629V716.629H255.903L255.906 718.631L257.906 718.629ZM412.417 656.131L412.419 654.131L412.417 656.131ZM312.127 625.619L311.015 627.281L312.127 625.619ZM481.532 642.442L480.768 640.593L481.532 642.442ZM579.335 544.791L581.182 545.558L579.335 544.791ZM593.131 475.698L595.131 475.699V475.699L593.131 475.698ZM562.775 375.36L564.439 374.25L562.775 375.36ZM481.791 308.797L481.024 310.644L481.791 308.797ZM377.475 298.443L377.863 300.405L377.475 298.443ZM235.497 440.2L233.536 439.808L235.497 440.2ZM245.69 544.532L247.538 543.768L245.69 544.532ZM790.154 873.14L790.156 875.14H790.158L790.154 873.14ZM917.651 820.186L919.065 821.6L917.651 820.186ZM970.604 692.69L972.604 692.694V692.691L970.604 692.69ZM940.226 592.314L938.562 593.424L940.226 592.314ZM859.189 525.747L858.423 527.594L859.189 525.747ZM662.331 564.867L660.917 563.453L662.331 564.867ZM612.903 657.36L614.865 657.75L612.903 657.36ZM623.211 761.725L621.364 762.491L623.211 761.725ZM896.713 692.69L894.713 692.688V692.69H896.713ZM878.754 751.89L880.417 753.002L878.754 751.89ZM888.619 651.901L890.467 651.137L888.619 651.901ZM865.522 617.322L866.936 615.908V615.908L865.522 617.322ZM790.154 586.131V588.131H790.155L790.154 586.131ZM730.953 604.09L729.842 602.427L730.953 604.09ZM691.707 651.912L689.859 651.146L691.707 651.912ZM685.643 713.478L683.682 713.868L685.643 713.478ZM769.366 797.201L768.975 799.162L769.366 797.201ZM518.976 475.698H520.976V475.695L518.976 475.698ZM501.017 534.898L499.355 533.787L501.017 534.898ZM487.717 400.398L489.132 398.983L487.717 400.398ZM412.417 369.139L412.42 367.139H412.417V369.139ZM353.217 387.097L352.105 385.435L353.217 387.097ZM313.97 434.919L315.818 435.685L313.97 434.919ZM307.906 496.486L309.868 496.096L307.906 496.486ZM337.069 551.046L338.483 549.632L337.069 551.046ZM391.629 580.209L392.019 578.247L391.629 580.209ZM453.195 574.145L453.961 575.993L453.195 574.145ZM790.151 297C830.585 297.056 869.347 313.142 897.939 341.731L900.768 338.903C871.426 309.565 831.649 293.057 790.157 293L790.151 297ZM682.325 341.719C710.919 313.107 749.705 297.022 790.155 297L790.153 293C748.642 293.022 708.839 309.529 679.496 338.891L682.325 341.719ZM637.676 449.577C637.671 409.127 653.732 370.331 682.325 341.719L679.496 338.891C650.153 368.253 633.671 408.067 633.676 449.578L637.676 449.577ZM656.358 522.505C644.067 500.167 637.639 475.077 637.676 449.58L633.676 449.575C633.638 475.747 640.236 501.503 652.854 524.433L656.358 522.505ZM718.772 485.791C694.978 493.824 672.817 506.061 653.343 521.918L655.869 525.02C674.972 509.464 696.711 497.461 720.052 489.581L718.772 485.791ZM707.798 449.498C707.704 463.173 711.097 476.646 717.657 488.645L721.167 486.726C714.933 475.324 711.708 462.52 711.798 449.525L707.798 449.498ZM713.726 417.657C709.657 427.787 707.642 438.625 707.798 449.54L711.798 449.483C711.649 439.097 713.566 428.786 717.438 419.148L713.726 417.657ZM731.501 390.533C723.837 398.307 717.795 407.527 713.726 417.657L717.438 419.148C721.309 409.51 727.058 400.738 734.349 393.341L731.501 390.533ZM758.368 372.372C748.297 376.585 739.164 382.759 731.501 390.533L734.349 393.341C741.641 385.944 750.33 380.071 759.911 376.062L758.368 372.372ZM790.162 365.988C779.246 365.988 768.438 368.158 758.368 372.372L759.911 376.062C769.493 372.052 779.776 369.988 790.162 369.988V365.988ZM821.957 372.372C811.887 368.158 801.079 365.988 790.162 365.988V369.988C800.549 369.988 810.832 372.052 820.413 376.062L821.957 372.372ZM848.824 390.533C841.16 382.759 832.028 376.585 821.957 372.372L820.413 376.062C829.995 380.071 838.684 385.944 845.975 393.341L848.824 390.533ZM866.599 417.657C862.53 407.527 856.488 398.307 848.824 390.533L845.975 393.341C853.267 400.738 859.016 409.51 862.887 419.148L866.599 417.657ZM872.526 449.54C872.683 438.625 870.668 427.787 866.599 417.657L862.887 419.148C866.758 428.786 868.675 439.097 868.527 449.483L872.526 449.54ZM862.711 488.561C869.119 476.542 872.489 463.138 872.526 449.517L868.526 449.506C868.491 462.474 865.282 475.236 859.181 486.679L862.711 488.561ZM927.014 521.852C907.54 505.995 885.38 493.758 861.586 485.725L860.306 489.515C883.647 497.395 905.386 509.398 924.489 524.954L927.014 521.852ZM942.682 449.514C942.719 475.011 936.291 500.101 923.999 522.439L927.504 524.367C940.122 501.437 946.72 475.682 946.682 449.509L942.682 449.514ZM897.939 341.731C926.532 370.321 942.622 409.081 942.682 449.514L946.682 449.508C946.62 408.016 930.109 368.241 900.768 338.903L897.939 341.731ZM412.42 871.14C371.988 871.084 333.228 854.998 304.638 826.408L301.81 829.236C331.148 858.575 370.923 875.083 412.415 875.14L412.42 871.14ZM470.812 859.551C452.297 867.21 432.455 871.148 412.418 871.14L412.416 875.14C432.979 875.149 453.341 871.107 472.341 863.247L470.812 859.551ZM520.326 826.497C506.152 840.659 489.327 851.891 470.812 859.551L472.341 863.247C491.341 855.386 508.607 843.86 523.153 829.327L520.326 826.497ZM553.421 777.012C545.746 795.52 534.5 812.335 520.326 826.497L523.153 829.327C537.699 814.793 549.24 797.537 557.116 778.544L553.421 777.012ZM565.061 718.628C565.052 738.664 561.097 758.503 553.421 777.012L557.116 778.544C564.993 759.55 569.052 739.191 569.061 718.629L565.061 718.628ZM492.856 720.629H567.061V716.629H492.856V720.629ZM488.585 750.151C492.725 740.157 494.856 729.446 494.856 718.629H490.856C490.856 728.921 488.828 739.112 484.89 748.62L488.585 750.151ZM470.729 776.875C478.378 769.226 484.446 760.145 488.585 750.151L484.89 748.62C480.951 758.129 475.178 766.769 467.901 774.046L470.729 776.875ZM444.006 794.731C454 790.591 463.08 784.524 470.729 776.875L467.901 774.046C460.623 781.324 451.984 787.096 442.475 791.035L444.006 794.731ZM412.483 801.001C423.301 801.001 434.012 798.87 444.006 794.731L442.475 791.035C432.966 794.974 422.775 797.001 412.483 797.001V801.001ZM380.961 794.731C390.955 798.87 401.666 801.001 412.483 801.001V797.001C402.191 797.001 392 794.974 382.491 791.035L380.961 794.731ZM354.237 776.875C361.886 784.524 370.967 790.591 380.961 794.731L382.491 791.035C372.983 787.096 364.343 781.324 357.066 774.046L354.237 776.875ZM336.381 750.151C340.521 760.145 346.588 769.226 354.237 776.875L357.066 774.046C349.788 766.769 344.015 758.129 340.077 748.62L336.381 750.151ZM330.111 718.629C330.111 729.446 332.242 740.157 336.381 750.151L340.077 748.62C336.138 739.112 334.111 728.921 334.111 718.629H330.111ZM257.906 720.629H332.111V716.629H257.906V720.629ZM304.638 826.408C276.048 797.818 259.962 759.058 259.906 718.626L255.906 718.631C255.963 760.122 272.471 799.898 301.81 829.236L304.638 826.408ZM412.419 654.131C377.103 654.102 342.588 643.602 313.24 623.957L311.015 627.281C341.021 647.366 376.308 658.102 412.416 658.131L412.419 654.131ZM480.768 640.593C459.095 649.55 435.87 654.151 412.419 654.131L412.416 658.131C436.392 658.151 460.137 653.448 482.296 644.29L480.768 640.593ZM538.733 601.929C522.138 618.498 502.441 631.637 480.768 640.593L482.296 644.29C504.454 635.133 524.592 621.7 541.559 604.759L538.733 601.929ZM577.487 544.024C568.497 565.683 555.328 585.359 538.733 601.929L541.559 604.759C558.526 587.819 571.99 567.702 581.182 545.558L577.487 544.024ZM591.131 475.696C591.114 499.147 586.478 522.365 577.487 544.024L581.182 545.558C590.374 523.413 595.114 499.675 595.131 475.699L591.131 475.696ZM561.111 376.47C580.71 405.849 591.157 440.38 591.131 475.696L595.131 475.699C595.158 439.592 584.477 404.287 564.439 374.25L561.111 376.47ZM481.024 310.644C513.642 324.184 541.512 347.091 561.111 376.47L564.439 374.25C544.401 344.213 515.906 320.793 482.558 306.95L481.024 310.644ZM377.863 300.405C412.506 293.541 448.406 297.105 481.024 310.644L482.558 306.95C449.209 293.107 412.505 289.464 377.086 296.481L377.863 300.405ZM286.399 349.203C311.391 324.25 343.22 307.268 377.863 300.405L377.086 296.481C341.667 303.498 309.124 320.86 283.573 346.372L286.399 349.203ZM237.459 440.591C244.376 405.959 261.407 374.156 286.399 349.203L283.573 346.372C258.021 371.884 240.608 404.4 233.536 439.808L237.459 440.591ZM247.538 543.768C234.049 511.129 230.542 475.224 237.459 440.591L233.536 439.808C226.464 475.216 230.05 511.926 243.841 545.296L247.538 543.768ZM313.24 623.957C283.891 604.313 261.027 576.407 247.538 543.768L243.841 545.296C257.632 578.666 281.009 607.197 311.015 627.281L313.24 623.957ZM790.153 871.14C754.821 871.166 720.276 860.711 690.889 841.098L688.668 844.425C718.714 864.477 754.033 875.166 790.156 875.14L790.153 871.14ZM916.236 818.772C882.789 852.219 837.451 871.049 790.15 871.14L790.158 875.14C838.517 875.047 884.87 855.796 919.065 821.6L916.236 818.772ZM968.604 692.686C968.514 739.987 949.683 785.325 916.236 818.772L919.065 821.6C953.26 787.405 972.512 741.053 972.604 692.694L968.604 692.686ZM938.562 593.424C958.175 622.812 968.63 657.357 968.604 692.688L972.604 692.691C972.631 656.568 961.942 621.25 941.889 591.204L938.562 593.424ZM858.423 527.594C891.06 541.127 918.949 564.037 938.562 593.424L941.889 591.204C921.837 561.158 893.323 537.735 859.955 523.899L858.423 527.594ZM755.215 517.401C789.868 510.514 825.786 514.062 858.423 527.594L859.955 523.899C826.587 510.064 789.865 506.437 754.435 513.477L755.215 517.401ZM663.746 566.281C688.729 541.298 720.561 524.287 755.215 517.401L754.435 513.477C719.005 520.518 686.46 537.91 660.917 563.453L663.746 566.281ZM614.865 657.75C621.752 623.096 638.763 591.264 663.746 566.281L660.917 563.453C635.375 588.995 617.983 621.541 610.942 656.971L614.865 657.75ZM625.059 760.958C611.526 728.322 607.979 692.404 614.865 657.75L610.942 656.971C603.901 692.4 607.528 729.123 621.364 762.491L625.059 760.958ZM690.889 841.098C661.501 821.485 638.591 793.595 625.059 760.958L621.364 762.491C635.2 795.859 658.622 824.373 688.668 844.425L690.889 841.098ZM894.713 692.69C894.713 713.369 888.58 733.585 877.091 750.779L880.417 753.002C892.346 735.149 898.713 714.161 898.713 692.69H894.713ZM886.771 652.666C892.022 665.355 894.721 678.955 894.713 692.688L898.713 692.691C898.721 678.432 895.919 664.312 890.467 651.137L886.771 652.666ZM864.107 618.736C873.818 628.447 881.52 639.977 886.771 652.666L890.467 651.137C885.015 637.961 877.018 625.99 866.936 615.908L864.107 618.736ZM830.178 596.073C842.867 601.324 854.397 609.026 864.107 618.736L866.936 615.908C856.853 605.826 844.882 597.829 831.707 592.377L830.178 596.073ZM790.155 588.131C803.888 588.123 817.488 590.821 830.178 596.073L831.707 592.377C818.532 586.924 804.412 584.122 790.153 584.131L790.155 588.131ZM732.065 605.753C749.259 594.264 769.474 588.131 790.154 588.131V584.131C768.683 584.131 747.695 590.498 729.842 602.427L732.065 605.753ZM693.555 652.677C701.468 633.571 714.87 617.242 732.065 605.753L729.842 602.427C711.99 614.355 698.076 631.31 689.859 651.146L693.555 652.677ZM687.605 713.088C683.57 692.806 685.641 671.783 693.555 652.677L689.859 651.146C681.643 670.983 679.493 692.81 683.682 713.868L687.605 713.088ZM716.22 766.624C701.597 752.001 691.639 733.37 687.605 713.088L683.682 713.868C687.87 734.927 698.21 754.27 713.392 769.452L716.22 766.624ZM769.756 795.239C749.473 791.205 730.843 781.246 716.22 766.624L713.392 769.452C728.574 784.634 747.917 794.973 768.975 799.162L769.756 795.239ZM830.167 789.289C811.061 797.203 790.038 799.274 769.756 795.239L768.975 799.162C790.034 803.351 811.861 801.201 831.698 792.985L830.167 789.289ZM877.091 750.779C865.602 767.974 849.273 781.375 830.167 789.289L831.698 792.985C851.534 784.768 868.489 770.854 880.417 753.002L877.091 750.779ZM516.976 475.698C516.976 496.377 510.844 516.593 499.355 533.787L502.68 536.009C514.609 518.157 520.976 497.168 520.976 475.698H516.976ZM486.303 401.812C505.903 421.412 516.933 447.982 516.976 475.701L520.976 475.695C520.931 446.917 509.48 419.332 489.132 398.983L486.303 401.812ZM412.414 371.139C440.133 371.182 466.703 382.212 486.303 401.812L489.132 398.983C468.783 378.635 441.197 367.184 412.42 367.139L412.414 371.139ZM354.328 388.76C371.522 377.271 391.738 371.139 412.417 371.139V367.139C390.946 367.139 369.958 373.506 352.105 385.435L354.328 388.76ZM315.818 435.685C323.732 416.579 337.133 400.249 354.328 388.76L352.105 385.435C334.253 397.363 320.339 414.318 312.122 434.154L315.818 435.685ZM309.868 496.096C305.833 475.814 307.904 454.79 315.818 435.685L312.122 434.154C303.906 453.991 301.756 475.818 305.945 496.876L309.868 496.096ZM338.483 549.632C323.861 535.009 313.902 516.378 309.868 496.096L305.945 496.876C310.133 517.935 320.473 537.278 335.655 552.46L338.483 549.632ZM392.019 578.247C371.737 574.213 353.106 564.254 338.483 549.632L335.655 552.46C350.837 567.642 370.18 577.981 391.239 582.17L392.019 578.247ZM452.43 572.297C433.325 580.211 412.301 582.281 392.019 578.247L391.239 582.17C412.297 586.359 434.124 584.209 453.961 575.993L452.43 572.297ZM499.355 533.787C487.865 550.982 471.536 564.383 452.43 572.297L453.961 575.993C473.797 567.776 490.752 553.862 502.68 536.009L499.355 533.787Z" fill="white" fill-opacity="0.1" mask="url(#path-11-inside-3_261_22517)"/>
</g>
<g clip-path="url(#clip0_261_22517)">
<g opacity="0.15">
<circle cx="512" cy="512" r="511.5" stroke="white"/>
<circle cx="1535" cy="512" r="511.5" stroke="white"/>
<circle cx="513" cy="256" r="255.5" stroke="white"/>
<circle cx="513" cy="768" r="255.5" stroke="white"/>
<rect y="512" width="1440" height="1" fill="white"/>
<circle cx="1025" cy="256" r="255.5" stroke="white"/>
<circle cx="1025" cy="768" r="255.5" stroke="white"/>
<rect x="1023" width="1" height="1024" fill="white"/>
<rect x="768" width="1" height="1024" fill="white"/>
<rect x="1281" width="1" height="1024" fill="white"/>
<rect x="512" width="1" height="1024" fill="white"/>
<rect x="160" width="1" height="1024" fill="white"/>
<rect x="257" width="1" height="1024" fill="white"/>
<rect y="256" width="1440" height="1" fill="white"/>
<rect y="768" width="1440" height="1" fill="white"/>
</g>
</g>
<g opacity="0.3" filter="url(#filter1_f_261_22517)">
<circle cx="1046.23" cy="916.233" r="126.649" transform="rotate(-34.7184 1046.23 916.233)" fill="#ECC55E"/>
</g>
<mask id="mask3_261_22517" style="mask-type:alpha" maskUnits="userSpaceOnUse" x="232" y="-102" width="369" height="589">
<rect x="232" y="-102" width="369" height="589" fill="#C4C4C4"/>
</mask>
<g mask="url(#mask3_261_22517)">
<mask id="path-30-inside-4_261_22517" fill="white">
<path fill-rule="evenodd" clip-rule="evenodd" d="M899.353 -56.683C870.387 -85.6467 831.117 -101.943 790.154 -102C749.173 -101.978 709.879 -85.6821 680.91 -56.6952C651.942 -27.7082 635.671 11.5967 635.676 52.5774C635.638 78.4122 642.151 103.835 654.606 126.469C673.895 110.762 695.844 98.6427 719.412 90.6859C713.015 78.9851 709.706 65.8466 709.798 52.5115C709.646 41.861 711.612 31.2865 715.582 21.4026C719.552 11.5186 725.447 2.52243 732.925 -5.06309C740.403 -12.6486 749.313 -18.6721 759.14 -22.7835C768.966 -26.8949 779.511 -29.0121 790.162 -29.0121C800.814 -29.0121 811.359 -26.8949 821.185 -22.7835C831.011 -18.6721 839.922 -12.6486 847.4 -5.06309C854.877 2.52243 860.773 11.5186 864.743 21.4026C868.713 31.2865 870.679 41.861 870.526 52.5115C870.49 65.8057 867.201 78.8889 860.946 90.6199C884.514 98.5767 906.463 110.696 925.752 126.403C938.206 103.769 944.719 78.3463 944.682 52.5115C944.621 11.5484 928.32 -27.7192 899.353 -56.683ZM303.224 430.822C332.188 459.786 371.456 476.083 412.417 476.14C432.717 476.149 452.819 472.159 471.577 464.399C490.334 456.638 507.379 445.26 521.739 430.912C536.099 416.564 547.493 399.529 555.269 380.778C563.045 362.027 567.052 341.928 567.061 321.629H492.856C492.856 332.183 490.777 342.634 486.738 352.386C482.699 362.137 476.778 370.997 469.315 378.46C461.852 385.924 452.992 391.844 443.24 395.883C433.489 399.922 423.038 402.001 412.483 402.001C401.929 402.001 391.477 399.922 381.726 395.883C371.975 391.844 363.115 385.924 355.651 378.46C348.188 370.997 342.268 362.137 338.229 352.386C334.19 342.634 332.111 332.183 332.111 321.629H257.906C257.963 362.59 274.26 401.858 303.224 430.822ZM312.127 228.619C341.804 248.484 376.706 259.102 412.417 259.131C436.131 259.151 459.616 254.499 481.532 245.442C503.448 236.385 523.365 223.099 540.146 206.344C556.927 189.589 570.243 169.693 579.335 147.791C588.426 125.889 593.114 102.411 593.131 78.6976C593.157 42.9858 582.593 8.06821 562.775 -21.6398C542.957 -51.3478 514.774 -74.5119 481.791 -88.2031C448.808 -101.894 412.506 -105.498 377.475 -98.5573C342.444 -91.617 310.257 -74.445 284.986 -49.2125C259.714 -23.9801 242.492 8.17952 235.497 43.1996C228.503 78.2198 232.05 114.528 245.69 147.532C259.33 180.536 282.45 208.755 312.127 228.619ZM689.778 445.761C719.495 465.594 754.427 476.166 790.154 476.14C837.984 476.048 883.829 457.007 917.651 423.186C951.472 389.365 970.513 343.52 970.604 295.69C970.63 259.963 960.058 225.031 940.226 195.314C920.393 165.597 892.191 142.431 859.189 128.747C826.187 115.063 789.867 111.476 754.825 118.439C719.783 125.403 687.594 142.604 662.331 167.867C637.069 193.13 619.867 225.319 612.903 260.36C605.94 295.402 609.527 331.722 623.211 364.725C636.896 397.727 660.062 425.929 689.778 445.761ZM878.754 354.89C890.463 337.367 896.713 316.765 896.713 295.69C896.721 281.694 893.971 267.833 888.619 254.901C883.267 241.969 875.418 230.219 865.522 220.322C855.625 210.426 843.875 202.577 830.943 197.225C818.01 191.873 804.15 189.123 790.154 189.131C769.079 189.131 748.477 195.381 730.953 207.09C713.43 218.798 699.772 235.441 691.707 254.912C683.642 274.383 681.532 295.808 685.643 316.478C689.755 337.149 699.903 356.135 714.806 371.038C729.708 385.94 748.695 396.089 769.366 400.201C790.036 404.312 811.461 402.202 830.932 394.137C850.403 386.072 867.045 372.414 878.754 354.89ZM501.017 137.898C512.726 120.375 518.976 99.7729 518.976 78.6976C518.932 50.4499 507.691 23.3717 487.717 3.39756C467.743 -16.5766 440.665 -27.8173 412.417 -27.8609C391.342 -27.8609 370.74 -21.6113 353.217 -9.90251C335.693 1.80629 322.035 18.4484 313.97 37.9194C305.905 57.3905 303.795 78.8158 307.906 99.4861C312.018 120.156 322.167 139.143 337.069 154.046C351.972 168.948 370.958 179.097 391.629 183.209C412.299 187.32 433.724 185.21 453.195 177.145C472.666 169.08 489.309 155.422 501.017 137.898Z"/>
</mask>
<path d="M790.154 -102L790.161 -107L790.151 -107L790.154 -102ZM635.676 52.5774L640.676 52.5847V52.5769L635.676 52.5774ZM654.606 126.469L650.226 128.88L653.115 134.131L657.763 130.346L654.606 126.469ZM719.412 90.6859L721.011 95.4232L726.658 93.5167L723.799 88.2872L719.412 90.6859ZM709.798 52.5115L714.798 52.5461L714.799 52.493L714.798 52.4399L709.798 52.5115ZM715.582 21.4026L720.222 23.2662V23.2662L715.582 21.4026ZM732.925 -5.06309L729.364 -8.57321L732.925 -5.06309ZM759.14 -22.7835L761.069 -18.171V-18.171L759.14 -22.7835ZM821.185 -22.7835L823.115 -27.396V-27.396L821.185 -22.7835ZM847.4 -5.06309L850.961 -8.5732L850.961 -8.57322L847.4 -5.06309ZM864.743 21.4026L869.383 19.5389H869.383L864.743 21.4026ZM870.526 52.5115L865.527 52.4398L865.527 52.4688L865.526 52.4977L870.526 52.5115ZM860.946 90.6199L856.534 88.2675L853.759 93.4709L859.346 95.3572L860.946 90.6199ZM925.752 126.403L922.594 130.28L927.242 134.065L930.132 128.814L925.752 126.403ZM944.682 52.5115L949.682 52.5042V52.504L944.682 52.5115ZM412.417 476.14L412.41 481.14H412.415L412.417 476.14ZM303.224 430.822L306.759 427.286H306.759L303.224 430.822ZM471.577 464.399L473.488 469.019H473.488L471.577 464.399ZM521.739 430.912L525.273 434.449L521.739 430.912ZM567.061 321.629L572.061 321.631L572.063 316.629H567.061V321.629ZM492.856 321.629V316.629H487.856V321.629H492.856ZM486.738 352.386L491.357 354.299L486.738 352.386ZM469.315 378.46L465.78 374.925H465.78L469.315 378.46ZM443.24 395.883L445.154 400.502L443.24 395.883ZM381.726 395.883L379.813 400.502L381.726 395.883ZM355.651 378.46L359.187 374.925H359.187L355.651 378.46ZM338.229 352.386L333.609 354.299H333.609L338.229 352.386ZM332.111 321.629H337.111V316.629H332.111V321.629ZM257.906 321.629V316.629H252.899L252.906 321.635L257.906 321.629ZM412.417 259.131L412.421 254.131L412.417 259.131ZM312.127 228.619L309.346 232.774V232.774L312.127 228.619ZM481.532 245.442L479.622 240.821L481.532 245.442ZM579.335 147.791L583.953 149.708V149.708L579.335 147.791ZM593.131 78.6976L598.131 78.7012L593.131 78.6976ZM562.775 -21.6398L566.934 -24.4146L562.775 -21.6398ZM481.791 -88.2031L479.874 -83.5851L481.791 -88.2031ZM377.475 -98.5573L378.446 -93.6526L377.475 -98.5573ZM235.497 43.1996L230.594 42.2203L235.497 43.1996ZM245.69 147.532L250.311 145.622L245.69 147.532ZM790.154 476.14L790.158 481.14H790.164L790.154 476.14ZM917.651 423.186L921.186 426.722L917.651 423.186ZM970.604 295.69L975.604 295.699V295.693L970.604 295.69ZM940.226 195.314L936.067 198.09V198.09L940.226 195.314ZM859.189 128.747L857.274 133.366L859.189 128.747ZM662.331 167.867L658.796 164.331L662.331 167.867ZM612.903 260.36L617.808 261.335L612.903 260.36ZM623.211 364.725L618.593 366.64V366.64L623.211 364.725ZM896.713 295.69L891.713 295.687V295.69H896.713ZM878.754 354.89L882.912 357.668L878.754 354.89ZM888.619 254.901L893.239 252.989L888.619 254.901ZM865.522 220.322L869.057 216.787L865.522 220.322ZM790.154 189.131V194.131H790.157L790.154 189.131ZM730.953 207.09L728.176 202.932L730.953 207.09ZM691.707 254.912L687.087 252.998L691.707 254.912ZM685.643 316.478L680.739 317.454L685.643 316.478ZM769.366 400.201L768.39 405.105L769.366 400.201ZM518.976 78.6976H523.976V78.6899L518.976 78.6976ZM501.017 137.898L496.86 135.12V135.12L501.017 137.898ZM487.717 3.39756L491.253 -0.137978L487.717 3.39756ZM412.417 -27.8609L412.425 -32.8609H412.417V-27.8609ZM353.217 -9.90251L350.439 -14.0599L353.217 -9.90251ZM313.97 37.9194L318.589 39.8328L313.97 37.9194ZM307.906 99.4861L312.81 98.5107L307.906 99.4861ZM337.069 154.046L340.605 150.51L337.069 154.046ZM391.629 183.209L392.604 178.305L391.629 183.209ZM453.195 177.145L455.109 181.764H455.109L453.195 177.145ZM790.147 -97C829.787 -96.9451 867.787 -81.1752 895.818 -53.1473L902.889 -60.2187C872.986 -90.1183 832.448 -106.941 790.161 -107L790.147 -97ZM684.447 -53.1608C712.478 -81.21 750.502 -96.9788 790.157 -97L790.151 -107C747.845 -106.977 707.279 -90.1543 677.374 -60.2296L684.447 -53.1608ZM640.676 52.5769C640.671 12.9219 656.416 -25.1115 684.447 -53.1608L677.374 -60.2296C647.468 -30.3048 630.671 10.2716 630.676 52.578L640.676 52.5769ZM658.987 124.059C646.939 102.165 640.639 77.5742 640.676 52.5847L630.676 52.5702C630.637 79.2503 637.363 105.505 650.226 128.88L658.987 124.059ZM717.813 85.9486C693.678 94.0967 671.201 106.508 651.449 122.592L657.763 130.346C676.588 115.017 698.01 103.189 721.011 95.4232L717.813 85.9486ZM704.798 52.4768C704.7 66.6619 708.22 80.6379 715.025 93.0845L723.799 88.2872C717.81 77.3323 714.712 65.0312 714.798 52.5461L704.798 52.4768ZM710.942 19.5389C706.725 30.0377 704.637 41.2701 704.799 52.5831L714.798 52.4399C714.655 42.452 716.498 32.5353 720.222 23.2662L710.942 19.5389ZM729.364 -8.57321C721.421 -0.515793 715.159 9.04006 710.942 19.5389L720.222 23.2662C723.945 13.9972 729.473 5.56065 736.486 -1.55297L729.364 -8.57321ZM757.21 -27.396C746.772 -23.0289 737.307 -16.6306 729.364 -8.57321L736.486 -1.55297C743.498 -8.66658 751.855 -14.3154 761.069 -18.171L757.21 -27.396ZM790.162 -34.0121C778.848 -34.0121 767.647 -31.7631 757.21 -27.396L761.069 -18.171C770.284 -22.0266 780.174 -24.0121 790.162 -24.0121V-34.0121ZM823.115 -27.396C812.678 -31.7631 801.477 -34.0121 790.162 -34.0121V-24.0121C800.151 -24.0121 810.04 -22.0266 819.255 -18.171L823.115 -27.396ZM850.961 -8.57322C843.018 -16.6306 833.552 -23.0289 823.115 -27.396L819.255 -18.171C828.47 -14.3154 836.827 -8.66658 843.839 -1.55296L850.961 -8.57322ZM869.383 19.5389C865.165 9.04005 858.903 -0.515793 850.961 -8.5732L843.839 -1.55298C850.851 5.56065 856.38 13.9972 860.103 23.2662L869.383 19.5389ZM875.526 52.5831C875.688 41.2701 873.6 30.0377 869.383 19.5389L860.103 23.2662C863.826 32.5353 865.67 42.452 865.527 52.4398L875.526 52.5831ZM865.358 92.9723C871.996 80.5214 875.487 66.6353 875.526 52.5253L865.526 52.4977C865.492 64.976 862.405 77.2564 856.534 88.2675L865.358 92.9723ZM928.909 122.526C909.157 106.442 886.679 94.0307 862.545 85.8826L859.346 95.3572C882.348 103.123 903.769 114.951 922.594 130.28L928.909 122.526ZM939.682 52.5187C939.718 77.5082 933.418 102.099 921.371 123.993L930.132 128.814C942.995 105.439 949.721 79.1843 949.682 52.5042L939.682 52.5187ZM895.818 -53.1473C923.849 -25.1194 939.623 12.8794 939.682 52.5189L949.682 52.504C949.619 10.2173 932.792 -30.3191 902.889 -60.2187L895.818 -53.1473ZM412.424 471.14C372.786 471.085 334.788 455.315 306.759 427.286L299.688 434.357C329.589 464.258 370.125 481.081 412.41 481.14L412.424 471.14ZM469.665 459.779C451.514 467.288 432.062 471.148 412.419 471.14L412.415 481.14C433.371 481.149 454.124 477.03 473.488 469.019L469.665 459.779ZM518.205 427.375C504.31 441.259 487.816 452.269 469.665 459.779L473.488 469.019C492.852 461.008 510.449 449.261 525.273 434.449L518.205 427.375ZM550.65 378.862C543.126 397.007 532.101 413.491 518.205 427.375L525.273 434.449C540.098 419.637 551.86 402.05 559.887 382.693L550.65 378.862ZM562.061 321.626C562.052 341.269 558.175 360.718 550.65 378.862L559.887 382.693C567.915 363.336 572.052 342.587 572.061 321.631L562.061 321.626ZM492.856 326.629H567.061V316.629H492.856V326.629ZM491.357 354.299C495.647 343.941 497.856 332.84 497.856 321.629H487.856C487.856 331.527 485.906 341.328 482.118 350.472L491.357 354.299ZM472.851 381.996C480.778 374.068 487.067 364.657 491.357 354.299L482.118 350.472C478.33 359.617 472.779 367.926 465.78 374.925L472.851 381.996ZM445.154 400.502C455.512 396.212 464.923 389.923 472.851 381.996L465.78 374.925C458.781 381.924 450.472 387.476 441.327 391.263L445.154 400.502ZM412.483 407.001C423.694 407.001 434.796 404.793 445.154 400.502L441.327 391.263C432.182 395.051 422.381 397.001 412.483 397.001V407.001ZM379.813 400.502C390.171 404.793 401.272 407.001 412.483 407.001V397.001C402.585 397.001 392.784 395.051 383.64 391.263L379.813 400.502ZM352.116 381.996C360.043 389.923 369.455 396.212 379.813 400.502L383.64 391.263C374.495 387.476 366.186 381.924 359.187 374.925L352.116 381.996ZM333.609 354.299C337.9 364.657 344.188 374.068 352.116 381.996L359.187 374.925C352.188 367.926 346.636 359.617 342.848 350.472L333.609 354.299ZM327.111 321.629C327.111 332.84 329.319 343.941 333.609 354.299L342.848 350.472C339.06 341.328 337.111 331.527 337.111 321.629H327.111ZM257.906 326.629H332.111V316.629H257.906V326.629ZM306.759 427.286C278.731 399.258 262.961 361.259 262.906 321.622L252.906 321.635C252.964 363.921 269.788 404.457 299.688 434.357L306.759 427.286ZM412.421 254.131C377.699 254.103 343.764 243.779 314.908 224.464L309.346 232.774C339.845 253.189 375.713 264.101 412.413 264.131L412.421 254.131ZM479.622 240.821C458.313 249.627 435.478 254.15 412.421 254.131L412.413 264.131C436.783 264.151 460.919 259.371 483.442 250.063L479.622 240.821ZM536.613 202.806C520.297 219.097 500.931 232.014 479.622 240.821L483.442 250.063C505.964 240.755 526.433 227.101 543.679 209.882L536.613 202.806ZM574.717 145.874C565.877 167.169 552.929 186.515 536.613 202.806L543.679 209.882C560.924 192.663 574.61 172.216 583.953 149.708L574.717 145.874ZM588.131 78.6939C588.115 101.751 583.556 124.579 574.717 145.874L583.953 149.708C593.296 127.2 598.114 103.072 598.131 78.7012L588.131 78.6939ZM558.616 -18.865C577.885 10.0203 588.157 43.971 588.131 78.694L598.131 78.7012C598.158 42.0006 587.302 6.11608 566.934 -24.4146L558.616 -18.865ZM479.874 -83.5851C511.944 -70.2731 539.346 -47.7504 558.616 -18.865L566.934 -24.4146C546.567 -54.9452 517.604 -78.7507 483.708 -92.821L479.874 -83.5851ZM378.446 -93.6526C412.507 -100.401 447.804 -96.8972 479.874 -83.5851L483.708 -92.821C449.811 -106.891 412.504 -110.594 376.503 -103.462L378.446 -93.6526ZM288.518 -45.6742C313.09 -70.208 344.385 -86.9046 378.446 -93.6526L376.503 -103.462C340.502 -96.3295 307.424 -78.682 281.453 -52.7508L288.518 -45.6742ZM240.401 44.1789C247.201 10.1286 263.947 -21.1405 288.518 -45.6742L281.453 -52.7508C255.481 -26.8196 237.783 6.23047 230.594 42.2203L240.401 44.1789ZM250.311 145.622C237.048 113.532 233.6 78.2293 240.401 44.1789L230.594 42.2203C223.406 78.2102 227.051 115.523 241.069 149.442L250.311 145.622ZM314.908 224.464C286.053 205.15 263.573 177.713 250.311 145.622L241.069 149.442C255.086 183.36 278.847 212.36 309.346 232.774L314.908 224.464ZM790.151 471.14C755.413 471.165 721.448 460.886 692.554 441.602L687.003 449.92C717.542 470.302 753.442 481.167 790.158 481.14L790.151 471.14ZM914.115 419.651C881.229 452.536 836.652 471.051 790.145 471.14L790.164 481.14C839.317 481.046 886.43 461.478 921.186 426.722L914.115 419.651ZM965.604 295.68C965.515 342.188 947.001 386.765 914.115 419.651L921.186 426.722C955.943 391.965 975.51 344.852 975.604 295.699L965.604 295.68ZM936.067 198.09C955.35 226.984 965.63 260.948 965.604 295.686L975.604 295.693C975.631 258.977 964.766 223.078 944.385 192.538L936.067 198.09ZM857.274 133.366C889.363 146.671 916.783 169.196 936.067 198.09L944.385 192.538C924.003 161.999 895.02 138.191 861.104 124.128L857.274 133.366ZM755.799 123.343C789.871 116.572 825.185 120.06 857.274 133.366L861.104 124.128C827.188 110.065 789.862 106.379 753.85 113.535L755.799 123.343ZM665.867 171.403C690.43 146.839 721.728 130.114 755.799 123.343L753.85 113.535C717.838 120.691 684.758 138.369 658.796 164.331L665.867 171.403ZM617.808 261.335C624.578 227.263 641.304 195.966 665.867 171.403L658.796 164.331C632.834 190.294 615.156 223.374 607.999 259.386L617.808 261.335ZM627.83 362.809C614.525 330.721 611.037 295.406 617.808 261.335L607.999 259.386C600.843 295.398 604.53 332.723 618.593 366.64L627.83 362.809ZM692.554 441.602C663.66 422.319 641.135 394.898 627.83 362.809L618.593 366.64C632.656 400.556 656.463 429.539 687.003 449.92L692.554 441.602ZM891.713 295.69C891.713 315.776 885.756 335.411 874.597 352.113L882.912 357.668C895.17 339.323 901.713 317.754 901.713 295.69H891.713ZM883.999 256.813C889.1 269.138 891.721 282.348 891.713 295.687L901.713 295.693C901.722 281.04 898.842 266.529 893.239 252.989L883.999 256.813ZM861.986 223.858C871.418 233.29 878.898 244.488 883.999 256.813L893.239 252.989C887.636 239.45 879.418 227.148 869.057 216.787L861.986 223.858ZM829.031 201.845C841.356 206.946 852.554 214.426 861.986 223.858L869.057 216.787C858.696 206.425 846.394 198.208 832.855 192.605L829.031 201.845ZM790.157 194.131C803.496 194.123 816.706 196.744 829.031 201.845L832.855 192.605C819.315 187.002 804.804 184.122 790.151 184.131L790.157 194.131ZM733.731 211.247C750.432 200.088 770.068 194.131 790.154 194.131V184.131C768.09 184.131 746.521 190.674 728.176 202.932L733.731 211.247ZM696.326 256.825C704.013 238.268 717.03 222.406 733.731 211.247L728.176 202.932C709.83 215.19 695.531 232.613 687.087 252.998L696.326 256.825ZM690.547 315.503C686.628 295.802 688.64 275.382 696.326 256.825L687.087 252.998C678.644 273.383 676.435 295.813 680.739 317.454L690.547 315.503ZM718.341 367.502C704.138 353.299 694.466 335.203 690.547 315.503L680.739 317.454C685.044 339.094 695.669 358.972 711.27 374.573L718.341 367.502ZM770.341 395.297C750.641 391.378 732.545 381.706 718.341 367.502L711.27 374.573C726.872 390.175 746.75 400.8 768.39 405.105L770.341 395.297ZM829.019 389.517C810.461 397.204 790.042 399.215 770.341 395.297L768.39 405.105C790.03 409.409 812.461 407.2 832.846 398.756L829.019 389.517ZM874.597 352.113C863.438 368.814 847.576 381.831 829.019 389.517L832.846 398.756C853.23 390.313 870.653 376.014 882.912 357.668L874.597 352.113ZM513.976 78.6976C513.976 98.784 508.02 118.419 496.86 135.12L505.175 140.676C517.433 122.33 523.976 100.762 523.976 78.6976H513.976ZM484.182 6.93309C503.22 25.9714 513.934 51.7811 513.976 78.7053L523.976 78.6899C523.93 49.1188 512.163 20.772 491.253 -0.137978L484.182 6.93309ZM412.41 -22.8609C439.334 -22.8193 465.143 -12.1053 484.182 6.93309L491.253 -0.137978C470.343 -21.0479 441.996 -32.8152 412.425 -32.8609L412.41 -22.8609ZM355.994 -5.74516C372.696 -16.9046 392.331 -22.8609 412.417 -22.8609V-32.8609C390.353 -32.8609 368.784 -26.3181 350.439 -14.0599L355.994 -5.74516ZM318.589 39.8328C326.276 21.2755 339.293 5.41423 355.994 -5.74517L350.439 -14.0599C332.093 -1.80166 317.794 15.6214 309.351 36.006L318.589 39.8328ZM312.81 98.5107C308.892 78.8103 310.903 58.3902 318.589 39.8328L309.351 36.006C300.907 56.3907 298.698 78.8214 303.002 100.462L312.81 98.5107ZM340.605 150.51C326.401 136.307 316.729 118.211 312.81 98.5107L303.002 100.462C307.307 122.102 317.932 141.98 333.534 157.581L340.605 150.51ZM392.604 178.305C372.904 174.386 354.808 164.714 340.605 150.51L333.534 157.581C349.135 173.183 369.013 183.808 390.653 188.112L392.604 178.305ZM451.282 172.525C432.725 180.212 412.305 182.223 392.604 178.305L390.653 188.112C412.294 192.417 434.724 190.208 455.109 181.764L451.282 172.525ZM496.86 135.12C485.701 151.822 469.839 164.839 451.282 172.525L455.109 181.764C475.494 173.321 492.917 159.022 505.175 140.676L496.86 135.12Z" fill="url(#paint5_linear_261_22517)" fill-opacity="0.3" mask="url(#path-30-inside-4_261_22517)"/>
</g>
<defs>
<filter id="filter0_f_261_22517" x="178.573" y="-87.4276" width="413.322" height="413.322" filterUnits="userSpaceOnUse" color-interpolation-filters="sRGB">
<feFlood flood-opacity="0" result="BackgroundImageFix"/>
<feBlend mode="normal" in="SourceGraphic" in2="BackgroundImageFix" result="shape"/>
<feGaussianBlur stdDeviation="40" result="effect1_foregroundBlur_261_22517"/>
</filter>
<filter id="filter1_f_261_22517" x="839.573" y="709.572" width="413.322" height="413.322" filterUnits="userSpaceOnUse" color-interpolation-filters="sRGB">
<feFlood flood-opacity="0" result="BackgroundImageFix"/>
<feBlend mode="normal" in="SourceGraphic" in2="BackgroundImageFix" result="shape"/>
<feGaussianBlur stdDeviation="40" result="effect1_foregroundBlur_261_22517"/>
</filter>
<linearGradient id="paint0_linear_261_22517" x1="1152.98" y1="166" x2="781.337" y2="606.021" gradientUnits="userSpaceOnUse">
<stop stop-color="#CEA94C"/>
<stop offset="1" stop-color="#C3A047"/>
</linearGradient>
<linearGradient id="paint1_linear_261_22517" x1="1072.43" y1="166" x2="810.817" y2="797.652" gradientUnits="userSpaceOnUse">
<stop stop-color="#CEA94C"/>
<stop offset="1" stop-color="#C3A047"/>
</linearGradient>
<linearGradient id="paint2_linear_261_22517" x1="1072.43" y1="539" x2="810.817" y2="1170.65" gradientUnits="userSpaceOnUse">
<stop stop-color="#CEA94C"/>
<stop offset="1" stop-color="#C3A047"/>
</linearGradient>
<linearGradient id="paint3_linear_261_22517" x1="523.976" y1="295" x2="152.337" y2="735.021" gradientUnits="userSpaceOnUse">
<stop stop-color="#CEA94C"/>
<stop offset="1" stop-color="#C3A047"/>
</linearGradient>
<linearGradient id="paint4_linear_261_22517" x1="816.43" y1="295" x2="554.817" y2="926.652" gradientUnits="userSpaceOnUse">
<stop stop-color="#CEA94C"/>
<stop offset="1" stop-color="#C3A047"/>
</linearGradient>
<linearGradient id="paint5_linear_261_22517" x1="816.43" y1="-102" x2="554.817" y2="529.652" gradientUnits="userSpaceOnUse">
<stop stop-color="#CEA94C"/>
<stop offset="1" stop-color="#C3A047"/>
</linearGradient>
<clipPath id="clip0_261_22517">
<rect width="1440" height="1024" fill="white"/>
</clipPath>
</defs>
</svg>
